{
.appVersion = "3260";
.formatVersion = 3;
DisplayStrings = (
")-12456789ACDEFHIJKLMNPRSTUWXZ",
"!\"'(),-.0123456789:;?ABCDEFGHIJKLMNOPQRSTUVWXYZ_*#//@&$%",
" !\"'(),-.0123456789:;?ABCDEFGHIJKLMNOPQRSTUVWXYZ_*#//@&$%"
);
customParameters = (
{
name = vendorID;
value = XXXX;
},
{
name = panose;
value = (
0,
0,
0,
0,
0,
0,
0,
0,
0,
0
);
},
{
name = unicodeRanges;
value = (
0,
1,
2,
31
);
},
{
name = codePageRanges;
value = (
"1252",
"1250"
);
},
{
name = fsType;
value = (
);
},
{
name = glyphOrder;
value = (
.notdef,
null,
controlLF,
controlCR,
space,
exclam,
quotedbl,
quotesingle,
parenleft,
parenright,
comma,
hyphen,
period,
zero,
one,
two,
three,
four,
five,
six,
seven,
eight,
nine,
colon,
semicolon,
question,
A,
B,
C,
D,
E,
F,
G,
H,
I,
J,
K,
L,
M,
N,
O,
P,
Q,
R,
S,
T,
U,
V,
W,
X,
Y,
Z,
underscore,
nonbreakingspace,
softhyphen
);
}
);
date = "2021-08-02 16:02:17 +0000";
familyName = Spel;
fontMaster = (
{
customParameters = (
{
name = typoAscender;
value = 881;
},
{
name = typoDescender;
value = -214;
},
{
name = typoLineGap;
value = 0;
},
{
name = winAscent;
value = 805;
},
{
name = winDescent;
value = 230;
},
{
name = hheaAscender;
value = 881;
},
{
name = hheaDescender;
value = -214;
},
{
name = strikeoutPosition;
value = 258;
},
{
name = strikeoutSize;
value = 49;
}
);
id = m01;
metricValues = (
{
pos = 881;
},
{
pos = 674;
},
{
pos = 497;
},
{
},
{
pos = -214;
},
{
}
);
name = Regular;
}
);
glyphs = (
{
glyphname = exclam;
lastChange = "2024-05-24 19:17:51 +0000";
layers = (
{
layerId = m01;
shapes = (
{
closed = 1;
nodes = (
(271,245,l),
(294,391,ls),
(301,427,o),
(339,642,o),
(344,679,cs),
(346,689,o),
(359,733,o),
(359,760,c),
(319,773,o),
(336,770,o),
(275,780,c),
(238,754,o),
(39,611,o),
(5,582,c),
(-4,463,o),
(2,592,o),
(-4,465,c),
(7,458,o),
(57,449,o),
(69,447,cs),
(79,445,o),
(95,448,o),
(96,438,cs),
(97,401,o),
(102,197,o),
(106,161,c)
);
},
{
closed = 1;
nodes = (
(175,-1,o),
(237,11,o),
(298,24,c),
(303,34,o),
(303,32,o),
(296,46,c),
(276,42,o),
(257,36,o),
(237,30,c),
(254,136,l),
(231,129,o),
(100,82,o),
(77,74,c),
(69,70,o),
(72,67,o),
(79,55,c),
(90,58,o),
(103,68,o),
(104,56,cs),
(114,-17,l)
);
}
);
width = 354;
}
);
note = exclam;
unicode = 33;
},
{
glyphname = quotedbl;
lastChange = "2024-05-24 19:17:51 +0000";
layers = (
{
layerId = m01;
shapes = (
{
closed = 1;
nodes = (
(229,400,ls),
(243,409,o),
(256,419,o),
(268,430,c),
(277,478,o),
(304,664,o),
(293,711,cs),
(291,721,o),
(266,728,o),
(245,730,c),
(163,682,o),
(86,623,o),
(8,568,c),
(27,510,l),
(94,552,l),
(93,553,o),
(119,521,o),
(126,514,c),
(136,447,l),
(136,443,o),
(133,428,o),
(132,424,c),
(113,393,o),
(87,365,o),
(65,335,cs),
(55,322,o),
(53,312,o),
(73,299,c)
);
},
{
closed = 1;
nodes = (
(469,374,o),
(477,366,o),
(597,437,c),
(624,594,o),
(631,455,o),
(623,735,c),
(535,707,o),
(448,679,o),
(361,647,cs),
(353,644,o),
(357,627,o),
(362,613,c),
(397,627,l),
(402,609,o),
(408,587,o),
(432,569,c),
(435,529,ls),
(435,524,o),
(437,506,o),
(435,501,cs),
(412,455,o),
(380,412,o),
(356,367,cs),
(353,361,o),
(343,359,o),
(344,352,cs),
(345,343,o),
(346,334,o),
(348,325,c)
);
}
);
width = 641;
}
);
note = quotedbl;
unicode = (34,171,187,8220,8221,8222);
},
{
glyphname = quotesingle;
lastChange = "2024-05-24 19:17:51 +0000";
layers = (
{
layerId = m01;
shapes = (
{
closed = 1;
nodes = (
(135,297,o),
(168,315,o),
(174,321,cs),
(184,329,o),
(237,375,o),
(245,384,cs),
(261,401,o),
(333,506,o),
(346,525,c),
(309,738,l),
(202,705,l),
(176,695,o),
(21,628,o),
(-5,619,c),
(-3,577,l),
(17,574,o),
(38,575,o),
(58,577,cs),
(66,578,o),
(72,570,o),
(79,569,cs),
(85,567,o),
(92,553,o),
(95,547,cs),
(144,445,o),
(127,535,o),
(159,413,c),
(87,350,l),
(129,293,l)
);
}
);
width = 356;
}
);
note = quotesingle;
unicode = (39,8216,8217,8218,8249,8250);
},
{
glyphname = parenleft;
lastChange = "2024-05-24 19:17:51 +0000";
layers = (
{
layerId = m01;
shapes = (
{
closed = 1;
nodes = (
(41,-166,o),
(291,-143,o),
(335,-139,c),
(341,-103,ls),
(342,-92,o),
(331,-89,o),
(300,-95,c),
(274,-94,o),
(247,-91,o),
(220,-87,c),
(221,-82,o),
(218,-76,o),
(213,-56,c),
(211,-22,o),
(210,13,o),
(214,47,cs),
(231,202,o),
(256,373,o),
(296,532,c),
(437,586,l),
(441,640,l),
(92,613,l),
(7,-53,l),
(-3,-173,l)
);
}
);
width = 423;
}
);
note = parenleft;
unicode = 40;
},
{
glyphname = parenright;
lastChange = "2024-05-24 19:17:51 +0000";
layers = (
{
layerId = m01;
shapes = (
{
closed = 1;
nodes = (
(178,-115,o),
(227,-116,o),
(236,-115,cs),
(245,-114,o),
(262,-92,o),
(263,-75,c),
(269,-42,o),
(301,144,o),
(305,177,cs),
(374,699,l),
(33,620,ls),
(22,617,o),
(21,613,o),
(16,587,c),
(9,568,o),
(18,547,o),
(37,542,cs),
(58,537,o),
(76,543,o),
(110,533,cs),
(148,520,o),
(118,544,o),
(161,519,c),
(116,263,ls),
(105,198,o),
(86,134,o),
(68,69,cs),
(66,60,o),
(61,52,o),
(61,42,c),
(17,14,o),
(-31,-6,o),
(-78,-27,cs),
(-121,-45,l),
(-143,-44,o),
(-147,-73,o),
(-127,-83,c),
(-127,-91,o),
(-124,-101,o),
(-116,-105,cs),
(-108,-110,o),
(-97,-107,o),
(-88,-108,cs),
(-3,-116,o),
(83,-115,o),
(168,-115,cs)
);
}
);
width = 422;
}
);
note = parenright;
unicode = 41;
},
{
glyphname = comma;
lastChange = "2024-05-24 19:17:51 +0000";
layers = (
{
layerId = m01;
shapes = (
{
closed = 1;
nodes = (
(67,-202,o),
(90,-184,o),
(113,-165,cs),
(125,-155,o),
(182,-105,o),
(192,-92,c),
(206,-65,ls),
(225,-34,o),
(242,-1,o),
(254,33,cs),
(280,110,o),
(252,203,o),
(172,212,cs),
(160,213,o),
(125,212,o),
(115,206,cs),
(78,182,o),
(42,155,o),
(10,124,cs),
(5,119,o),
(10,110,o),
(11,103,c),
(22,110,o),
(35,118,o),
(48,118,cs),
(61,118,o),
(76,115,o),
(85,105,cs),
(119,69,o),
(98,-21,o),
(78,-67,cs),
(62,-105,o),
(37,-139,o),
(11,-171,c),
(41,-216,l)
);
}
);
width = 277;
}
);
note = comma;
unicode = 44;
},
{
glyphname = hyphen;
lastChange = "2024-05-24 19:17:51 +0000";
layers = (
{
layerId = m01;
shapes = (
{
closed = 1;
nodes = (
(305,109,o),
(312,116,o),
(321,116,cs),
(331,116,o),
(338,125,o),
(345,133,cs),
(378,167,o),
(412,200,o),
(446,233,cs),
(458,244,o),
(440,255,o),
(428,245,cs),
(398,221,l),
(311,243,o),
(223,259,o),
(133,267,c),
(113,267,o),
(123,275,o),
(98,248,c),
(69,228,o),
(46,201,o),
(25,174,cs),
(17,165,o),
(7,151,o),
(17,147,c),
(53,149,l),
(55,160,o),
(59,168,o),
(83,165,c),
(113,156,o),
(266,114,o),
(296,110,cs)
);
},
{
closed = 1;
nodes = (
(23,298,c),
(30,306,o),
(39,312,o),
(48,317,cs),
(53,320,o),
(58,329,o),
(66,333,cs),
(79,339,o),
(134,336,o),
(149,335,cs),
(377,314,l),
(462,399,l),
(458,406,o),
(447,408,o),
(438,409,cs),
(364,415,o),
(289,424,o),
(215,426,cs),
(181,426,o),
(147,425,o),
(116,415,cs),
(88,406,o),
(63,385,o),
(46,362,cs),
(39,352,o),
(17,306,o)
);
}
);
width = 473;
}
);
note = hyphen;
unicode = 45;
},
{
glyphname = period;
lastChange = "2024-05-24 19:17:51 +0000";
layers = (
{
layerId = m01;
shapes = (
{
closed = 1;
nodes = (
(246,16,o),
(315,41,o),
(384,66,c),
(378,105,l),
(286,118,o),
(424,79,o),
(325,104,c),
(316,124,o),
(264,217,o),
(249,235,cs),
(245,241,o),
(238,246,o),
(231,246,cs),
(223,246,o),
(200,234,o),
(194,229,c),
(160,209,o),
(29,127,o),
(6,95,c),
(28,75,l),
(33,82,o),
(41,87,o),
(48,93,c),
(131,51,o),
(100,45,o),
(181,-18,c)
);
}
);
width = 391;
}
);
note = period;
unicode = 46;
},
{
glyphname = zero;
lastChange = "2024-05-24 19:17:51 +0000";
layers = (
{
layerId = m01;
shapes = (
{
closed = 1;
nodes = (
(103,81,c),
(149,132,o),
(199,181,o),
(249,228,c),
(231,267,o),
(214,307,o),
(198,347,cs),
(187,376,o),
(176,406,o),
(172,438,c),
(234,402,o),
(293,361,o),
(352,321,c),
(419,381,o),
(489,438,o),
(562,501,c),
(526,524,o),
(487,542,o),
(449,559,cs),
(443,562,o),
(438,568,o),
(438,575,c),
(440,583,o),
(445,619,o),
(443,628,cs),
(441,640,o),
(427,650,o),
(415,654,cs),
(381,664,o),
(235,659,o),
(200,657,c),
(146,559,l),
(158,554,o),
(171,551,o),
(184,548,c),
(141,478,o),
(74,425,o),
(8,376,c),
(8,368,o),
(5,333,o),
(7,325,cs),
(38,185,o),
(15,197,o)
);
},
{
closed = 1;
nodes = (
(317,-42,o),
(328,-24,o),
(333,-15,cs),
(341,2,o),
(400,66,o),
(413,80,cs),
(429,97,o),
(513,183,o),
(532,198,cs),
(551,213,o),
(650,280,o),
(666,299,cs),
(686,324,o),
(690,363,o),
(675,389,cs),
(654,426,o),
(624,458,o),
(590,483,c),
(489,398,o),
(480,399,o),
(386,303,c),
(399,295,o),
(406,277,o),
(405,262,cs),
(401,207,o),
(392,149,o),
(362,102,c),
(335,112,o),
(309,129,o),
(292,152,cs),
(281,167,o),
(271,184,o),
(263,200,c),
(175,117,o),
(195,147,o),
(120,45,c),
(144,15,o),
(176,-11,o),
(211,-26,cs),
(241,-38,o),
(274,-42,o),
(307,-42,cs)
);
},
{
closed = 1;
nodes = (
(165,655,l),
(153,655,o),
(129,658,o),
(124,647,cs),
(94,586,l),
(92,580,o),
(97,579,o),
(118,569,c)
);
}
);
width = 672;
}
);
note = zero;
unicode = 48;
},
{
glyphname = one;
lastChange = "2024-05-24 19:17:51 +0000";
layers = (
{
layerId = m01;
shapes = (
{
closed = 1;
nodes = (
(402,85,o),
(400,181,o),
(416,274,cs),
(421,303,o),
(481,498,o),
(494,532,c),
(377,661,l),
(351,635,o),
(324,609,o),
(293,590,c),
(171,530,l),
(165,514,o),
(132,429,o),
(128,414,c),
(153,410,o),
(178,408,o),
(203,406,c),
(192,379,o),
(123,221,o),
(113,193,c),
(83,182,o),
(52,169,o),
(22,159,c),
(21,159,o),
(6,146,o),
(4,143,c),
(4,101,o),
(6,60,o),
(9,19,c),
(141,30,o),
(276,20,o),
(405,-9,c)
);
},
{
closed = 1;
nodes = (
(109,410,o),
(112,427,o),
(114,439,cs),
(130,505,ls),
(133,522,o),
(138,520,o),
(138,543,c),
(131,541,o),
(87,531,o),
(80,528,c),
(78,521,o),
(69,485,o),
(69,478,cs),
(69,466,o),
(61,427,o),
(56,418,c),
(97,411,ls)
);
},
{
closed = 1;
nodes = (
(524,16,ls),
(522,24,o),
(519,32,o),
(518,40,cs),
(505,120,o),
(492,202,o),
(474,281,c),
(464,280,o),
(447,282,o),
(446,272,cs),
(429,178,o),
(432,80,o),
(435,-16,c),
(468,-24,o),
(501,-33,o),
(534,-43,c)
);
}
);
width = 560;
}
);
note = one;
unicode = 49;
},
{
glyphname = two;
lastChange = "2024-05-24 19:17:51 +0000";
layers = (
{
layerId = m01;
shapes = (
{
closed = 1;
nodes = (
(49,-82,c),
(58,-73,o),
(99,-51,o),
(111,-47,cs),
(172,-22,o),
(238,-9,o),
(304,-7,cs),
(453,-4,o),
(603,-26,o),
(748,-59,c),
(805,-3,ls),
(812,4,o),
(823,10,o),
(816,15,cs),
(771,51,o),
(729,92,o),
(689,133,cs),
(650,174,o),
(611,216,o),
(579,262,c),
(447,207,l),
(436,147,l),
(300,153,l),
(321,180,o),
(346,203,o),
(373,224,cs),
(391,239,o),
(501,318,o),
(520,332,cs),
(559,360,o),
(598,390,o),
(629,427,cs),
(635,434,o),
(663,470,o),
(668,478,cs),
(677,496,o),
(650,509,o),
(633,519,cs),
(543,571,o),
(454,624,o),
(361,671,cs),
(354,674,o),
(333,685,o),
(326,683,cs),
(319,682,o),
(313,674,o),
(302,661,c),
(270,669,o),
(214,630,o),
(192,606,cs),
(163,574,o),
(145,534,o),
(130,494,cs),
(120,470,o),
(113,444,o),
(110,417,c),
(99,426,o),
(41,473,o),
(30,480,c),
(4,352,l),
(62,325,o),
(119,297,o),
(174,264,c),
(205,252,l),
(223,265,o),
(240,277,o),
(257,291,c),
(252,338,o),
(240,460,o),
(273,495,cs),
(294,518,o),
(323,493,o),
(335,464,cs),
(358,407,o),
(357,389,o),
(341,312,c),
(269,246,o),
(187,193,o),
(105,141,cs),
(64,114,l),
(56,98,o),
(51,80,o),
(46,63,cs),
(44,55,o),
(52,39,o),
(57,33,c),
(18,31,o),
(31,51,o),
(-3,19,c),
(-1,13,o),
(46,-78,o)
);
}
);
width = 797;
}
);
note = two;
unicode = 50;
},
{
glyphname = three;
lastChange = "2024-05-24 19:17:51 +0000";
layers = (
{
layerId = m01;
shapes = (
{
closed = 1;
nodes = (
(295,-53,o),
(381,-34,o),
(460,-3,cs),
(529,24,o),
(603,62,o),
(658,120,c),
(676,134,o),
(693,164,o),
(709,191,c),
(722,219,o),
(722,248,o),
(712,276,cs),
(704,295,o),
(688,311,o),
(671,324,cs),
(622,361,o),
(554,373,o),
(492,373,cs),
(482,373,o),
(484,388,o),
(491,394,cs),
(508,408,o),
(592,489,o),
(607,505,c),
(539,638,l),
(454,617,o),
(367,604,o),
(280,597,c),
(252,539,ls),
(134,308,o),
(291,616,o),
(164,388,c),
(171,389,o),
(209,393,o),
(216,395,cs),
(276,410,o),
(334,434,o),
(391,457,c),
(393,466,o),
(409,498,o),
(414,505,cs),
(428,525,o),
(448,532,o),
(470,525,cs),
(492,519,o),
(495,492,o),
(484,471,cs),
(480,463,o),
(453,433,o),
(446,426,cs),
(410,392,o),
(363,372,o),
(318,342,c),
(320,338,o),
(333,318,o),
(334,315,c),
(383,320,o),
(486,326,o),
(514,286,cs),
(519,280,o),
(526,274,o),
(524,267,cs),
(521,249,o),
(505,235,o),
(491,223,cs),
(455,195,o),
(411,174,o),
(366,162,c),
(369,174,o),
(385,236,o),
(386,248,cs),
(388,258,o),
(403,255,o),
(383,264,c),
(319,253,o),
(255,247,o),
(190,243,c),
(176,216,o),
(162,190,o),
(151,163,cs),
(56,-45,o),
(144,201,o),
(63,-19,c),
(86,-28,o),
(186,-52,o),
(211,-53,cs)
);
},
{
closed = 1;
nodes = (
(73,76,o),
(117,156,o),
(150,241,c),
(115,238,o),
(145,245,o),
(103,235,c),
(68,168,o),
(25,105,o),
(-18,42,c),
(-5,24,o),
(11,9,o),
(29,-3,c)
);
},
{
closed = 1;
nodes = (
(668,570,l),
(645,627,o),
(663,607,o),
(610,656,c),
(573,647,l),
(633,531,l)
);
}
);
width = 723;
}
);
note = three;
unicode = 51;
},
{
glyphname = four;
lastChange = "2024-05-24 19:17:51 +0000";
layers = (
{
layerId = m01;
shapes = (
{
closed = 1;
nodes = (
(396,74,ls),
(464,93,o),
(532,111,o),
(601,125,c),
(602,182,o),
(605,240,o),
(621,295,cs),
(637,353,o),
(661,409,o),
(689,462,cs),
(716,511,o),
(702,461,o),
(719,521,c),
(650,573,l),
(605,548,o),
(561,522,o),
(520,492,cs),
(503,480,o),
(415,414,o),
(400,400,c),
(426,350,l),
(423,343,o),
(421,332,o),
(414,331,cs),
(366,328,o),
(319,318,o),
(272,307,c),
(312,347,o),
(348,386,o),
(373,443,c),
(340,457,o),
(308,476,o),
(277,496,cs),
(228,527,o),
(181,563,o),
(136,601,c),
(109,521,l),
(119,504,o),
(131,487,o),
(143,471,c),
(122,416,o),
(92,362,o),
(50,322,c),
(149,159,l),
(222,174,o),
(295,189,o),
(368,200,c),
(361,181,o),
(331,72,o),
(326,52,c)
);
},
{
closed = 1;
nodes = (
(74,142,c),
(113,152,l),
(27,302,l),
(-13,273,l),
(13,228,o),
(26,176,o)
);
},
{
closed = 1;
nodes = (
(318,-41,o),
(371,-29,o),
(425,-21,cs),
(504,-9,o),
(584,-4,o),
(668,5,c),
(667,13,o),
(659,52,o),
(656,59,cs),
(650,73,o),
(645,87,o),
(641,101,c),
(628,105,o),
(581,90,o),
(567,87,cs),
(457,61,o),
(344,36,o),
(242,-14,c),
(265,-53,l)
);
}
);
width = 713;
}
);
note = four;
unicode = 52;
},
{
glyphname = five;
lastChange = "2024-05-24 19:17:51 +0000";
layers = (
{
layerId = m01;
shapes = (
{
closed = 1;
nodes = (
(440,-46,o),
(484,-6,o),
(521,38,cs),
(559,84,o),
(596,137,o),
(604,196,cs),
(609,238,o),
(584,283,o),
(554,314,cs),
(513,355,o),
(456,383,o),
(399,393,cs),
(337,404,o),
(272,396,o),
(211,383,cs),
(184,377,o),
(157,371,o),
(132,361,c),
(181,450,l),
(189,450,o),
(232,454,o),
(240,453,cs),
(295,450,o),
(351,445,o),
(407,443,c),
(459,564,ls),
(465,576,o),
(494,650,o),
(499,662,c),
(317,646,o),
(343,661,o),
(159,613,c),
(155,515,l),
(103,504,l),
(71,420,o),
(39,336,o),
(9,250,c),
(78,283,o),
(153,304,o),
(229,316,cs),
(244,319,o),
(297,324,o),
(311,320,cs),
(333,313,o),
(333,286,o),
(324,266,cs),
(318,251,o),
(289,202,o),
(276,192,cs),
(226,158,l),
(223,176,o),
(236,258,o),
(237,277,c),
(153,223,o),
(70,170,o),
(-10,111,c),
(111,50,o),
(233,-10,o),
(356,-65,cs),
(367,-70,o),
(380,-79,o),
(390,-73,cs)
);
},
{
closed = 1;
nodes = (
(542,442,l),
(561,474,o),
(682,663,o),
(701,694,c),
(635,702,o),
(617,702,o),
(548,705,c),
(486,550,l),
(439,442,l)
);
}
);
width = 669;
}
);
note = five;
unicode = 53;
},
{
glyphname = six;
lastChange = "2024-05-24 19:17:51 +0000";
layers = (
{
layerId = m01;
shapes = (
{
closed = 1;
nodes = (
(364,-24,o),
(429,0,o),
(486,38,cs),
(531,69,o),
(579,97,o),
(620,134,cs),
(643,155,o),
(665,181,o),
(676,210,cs),
(686,237,o),
(687,269,o),
(676,295,cs),
(664,322,o),
(641,343,o),
(617,359,cs),
(600,370,o),
(580,374,o),
(561,377,cs),
(503,387,o),
(443,380,o),
(386,367,cs),
(344,358,o),
(302,346,o),
(264,329,cs),
(253,324,o),
(242,320,o),
(232,313,c),
(238,301,o),
(281,252,o),
(290,242,c),
(319,242,o),
(406,230,o),
(429,212,c),
(433,210,o),
(442,197,o),
(443,193,cs),
(445,189,o),
(446,170,o),
(447,165,cs),
(448,148,o),
(434,125,o),
(417,121,cs),
(408,120,o),
(382,118,o),
(374,123,cs),
(340,143,o),
(306,167,o),
(282,199,cs),
(254,237,o),
(229,279,o),
(208,322,cs),
(189,360,o),
(171,399,o),
(163,441,c),
(175,463,o),
(201,484,o),
(227,482,cs),
(236,481,o),
(246,484,o),
(254,481,cs),
(272,474,o),
(316,423,o),
(328,408,c),
(401,423,l),
(371,477,o),
(347,533,o),
(329,591,c),
(245,569,o),
(162,538,o),
(85,496,cs),
(49,476,o),
(11,447,o),
(-7,399,c),
(-13,378,o),
(12,314,o),
(20,293,cs),
(58,196,o),
(113,101,o),
(186,27,cs),
(203,10,o),
(250,-37,o),
(274,-38,cs),
(282,-38,o),
(291,-43,o),
(299,-41,cs)
);
},
{
closed = 1;
nodes = (
(433,428,o),
(443,432,o),
(450,434,cs),
(468,437,o),
(487,442,o),
(505,446,c),
(458,511,o),
(418,580,o),
(386,653,c),
(343,645,l),
(366,572,o),
(392,500,o),
(429,433,c)
);
}
);
width = 673;
}
);
note = six;
unicode = 54;
},
{
glyphname = seven;
lastChange = "2024-05-24 19:17:51 +0000";
layers = (
{
layerId = m01;
shapes = (
{
closed = 1;
nodes = (
(175,-68,ls),
(443,104,o),
(205,-58,o),
(485,106,c),
(474,140,l),
(429,125,o),
(453,130,o),
(389,103,c),
(405,140,o),
(433,170,o),
(461,197,cs),
(499,233,o),
(539,266,o),
(581,297,cs),
(624,327,o),
(669,354,o),
(719,368,cs),
(729,370,o),
(742,373,o),
(735,381,cs),
(574,559,l),
(485,563,o),
(587,548,o),
(496,561,c),
(538,730,l),
(518,741,o),
(492,736,o),
(469,734,cs),
(390,725,o),
(311,708,o),
(235,685,cs),
(166,663,o),
(100,634,o),
(33,610,cs),
(25,607,o),
(-7,584,o),
(-14,579,c),
(2,545,o),
(93,335,o),
(110,301,c),
(131,310,o),
(151,320,o),
(171,330,cs),
(179,333,o),
(191,335,o),
(187,342,cs),
(184,349,o),
(167,378,o),
(166,385,cs),
(162,405,o),
(194,415,o),
(212,423,cs),
(260,444,o),
(308,465,o),
(357,481,cs),
(393,493,o),
(429,499,o),
(466,506,cs),
(479,508,o),
(505,508,o),
(495,500,cs),
(478,487,o),
(379,404,o),
(362,390,cs),
(319,355,o),
(277,317,o),
(240,276,cs),
(217,251,o),
(107,158,o),
(94,127,c),
(91,122,o),
(91,102,o),
(91,96,cs),
(93,77,o),
(101,59,o),
(109,41,cs),
(120,15,o),
(130,-15,o),
(152,-33,c),
(136,-49,o),
(129,-34,o),
(129,-62,c),
(145,-88,l)
);
}
);
width = 718;
}
);
note = seven;
unicode = 55;
},
{
glyphname = eight;
lastChange = "2024-05-24 19:17:51 +0000";
layers = (
{
layerId = m01;
shapes = (
{
closed = 1;
nodes = (
(383,-42,o),
(464,-36,o),
(482,-33,cs),
(535,-23,o),
(588,3,o),
(627,42,cs),
(640,55,o),
(652,70,o),
(658,88,cs),
(662,99,o),
(663,111,o),
(666,123,cs),
(674,148,o),
(675,176,o),
(669,201,cs),
(658,242,o),
(631,279,o),
(599,306,cs),
(561,338,o),
(514,357,o),
(468,376,c),
(419,353,o),
(368,336,o),
(320,313,cs),
(289,298,o),
(294,305,o),
(272,279,c),
(294,274,o),
(313,262,o),
(333,253,cs),
(376,234,o),
(409,215,o),
(460,175,cs),
(469,169,o),
(486,156,o),
(476,155,cs),
(411,146,o),
(341,146,o),
(279,169,cs),
(275,171,o),
(266,183,o),
(263,187,cs),
(245,212,o),
(239,247,o),
(243,279,cs),
(244,284,o),
(247,301,o),
(251,305,cs),
(269,321,o),
(291,333,o),
(312,343,cs),
(340,355,o),
(474,408,o),
(498,426,cs),
(521,444,o),
(532,475,o),
(534,504,cs),
(539,554,o),
(516,610,o),
(476,642,cs),
(468,649,o),
(421,678,o),
(413,684,cs),
(387,700,o),
(359,713,o),
(330,723,c),
(275,665,l),
(247,678,o),
(214,679,o),
(183,676,cs),
(151,674,o),
(117,665,o),
(91,646,cs),
(62,625,o),
(39,593,o),
(32,558,cs),
(27,527,o),
(37,493,o),
(53,465,c),
(20,432,o),
(52,504,o),
(0,396,c),
(47,380,o),
(94,363,o),
(140,345,c),
(153,356,o),
(169,364,o),
(182,375,cs),
(216,402,o),
(255,423,o),
(299,447,c),
(296,449,o),
(281,455,o),
(277,456,c),
(240,471,o),
(205,491,o),
(170,511,c),
(197,520,o),
(225,530,o),
(253,534,c),
(312,495,o),
(320,487,o),
(366,427,c),
(342,418,o),
(234,376,o),
(213,360,cs),
(156,317,o),
(99,257,o),
(67,189,c),
(63,187,o),
(45,193,o),
(40,194,c),
(53,164,o),
(69,136,o),
(87,110,cs),
(111,76,o),
(144,49,o),
(174,20,cs),
(204,-9,o),
(323,-39,o),
(366,-41,cs)
);
}
);
width = 664;
}
);
note = eight;
unicode = 56;
},
{
glyphname = nine;
lastChange = "2024-05-24 19:17:51 +0000";
layers = (
{
layerId = m01;
shapes = (
{
closed = 1;
nodes = (
(224,-76,o),
(291,-69,o),
(351,-46,cs),
(408,-24,o),
(458,13,o),
(504,53,cs),
(531,78,o),
(556,106,o),
(575,137,cs),
(607,191,o),
(627,251,o),
(649,309,c),
(639,387,o),
(610,467,o),
(561,529,cs),
(510,594,o),
(446,648,o),
(380,698,c),
(330,669,o),
(58,481,o),
(10,448,c),
(23,402,o),
(40,356,o),
(64,313,cs),
(79,285,o),
(95,254,o),
(123,239,cs),
(163,216,o),
(195,205,o),
(260,221,c),
(277,223,o),
(364,264,o),
(377,274,c),
(386,236,o),
(393,197,o),
(400,158,c),
(392,123,o),
(378,87,o),
(354,60,cs),
(332,36,o),
(349,27,o),
(303,34,c),
(297,40,o),
(287,60,o),
(286,69,cs),
(285,97,o),
(299,126,o),
(318,147,cs),
(323,152,o),
(324,145,o),
(321,167,c),
(301,157,o),
(185,102,o),
(166,91,c),
(112,50,l),
(123,14,o),
(134,-21,o),
(149,-56,cs),
(151,-61,o),
(154,-74,o),
(160,-74,cs)
);
},
{
closed = 1;
nodes = (
(218,149,l),
(205,177,l),
(133,160,o),
(109,161,o),
(40,129,c),
(58,70,l)
);
},
{
closed = 1;
nodes = (
(255,371,c),
(215,403,o),
(204,423,o),
(175,473,c),
(254,515,l),
(264,497,o),
(322,400,o),
(334,383,c),
(296,369,o),
(309,365,o)
);
},
{
closed = 1;
nodes = (
(301,705,l),
(277,730,l),
(203,694,o),
(130,657,o),
(58,617,c),
(59,590,o),
(61,563,o),
(60,536,c)
);
}
);
width = 657;
}
);
note = nine;
unicode = 57;
},
{
glyphname = colon;
lastChange = "2024-05-24 19:17:51 +0000";
layers = (
{
layerId = m01;
shapes = (
{
closed = 1;
nodes = (
(203,286,o),
(253,323,o),
(304,361,c),
(276,377,l),
(261,393,o),
(182,454,o),
(148,470,c),
(101,427,o),
(54,383,o),
(11,336,c),
(14,332,o),
(21,322,o),
(26,323,c),
(37,329,o),
(26,334,o),
(48,336,c),
(62,327,o),
(128,276,o),
(151,252,c)
);
},
{
closed = 1;
nodes = (
(198,2,o),
(247,28,o),
(297,52,c),
(294,58,o),
(281,81,o),
(275,85,cs),
(269,88,o),
(260,78,o),
(256,83,cs),
(219,121,o),
(178,156,o),
(137,190,c),
(95,160,o),
(53,130,o),
(13,98,c),
(20,89,o),
(25,74,o),
(34,80,cs),
(53,94,l),
(176,-60,o),
(20,139,o),
(148,-24,c)
);
}
);
width = 314;
}
);
note = colon;
unicode = 58;
},
{
glyphname = semicolon;
lastChange = "2024-05-24 19:17:51 +0000";
layers = (
{
layerId = m01;
shapes = (
{
closed = 1;
nodes = (
(169,-122,o),
(201,-64,o),
(227,-4,cs),
(239,24,o),
(249,53,o),
(252,84,cs),
(255,104,o),
(255,125,o),
(248,145,cs),
(230,192,o),
(170,197,o),
(123,175,cs),
(82,156,o),
(47,125,o),
(14,93,cs),
(9,88,o),
(15,78,o),
(17,71,c),
(34,84,o),
(66,100,o),
(84,88,c),
(89,83,o),
(93,77,o),
(95,70,c),
(103,53,o),
(105,33,o),
(106,14,cs),
(106,-28,o),
(100,-69,o),
(90,-110,cs),
(86,-123,o),
(85,-136,o),
(81,-149,c),
(132,-175,l)
);
},
{
closed = 1;
nodes = (
(164,253,o),
(221,293,o),
(269,328,c),
(259,365,l),
(252,362,o),
(226,343,o),
(220,338,c),
(216,352,o),
(181,416,o),
(174,429,cs),
(171,435,o),
(168,448,o),
(162,444,cs),
(111,408,o),
(62,369,o),
(13,330,cs),
(7,325,o),
(16,316,o),
(20,309,c),
(40,325,l),
(56,311,o),
(110,243,o),
(121,224,c)
);
}
);
width = 284;
}
);
note = semicolon;
unicode = 59;
},
{
glyphname = question;
lastChange = "2024-05-24 19:17:51 +0000";
layers = (
{
layerId = m01;
shapes = (
{
closed = 1;
nodes = (
(276,138,o),
(305,150,o),
(356,171,c),
(352,204,o),
(351,194,o),
(357,229,c),
(384,235,o),
(409,248,o),
(434,261,cs),
(475,283,o),
(513,309,o),
(550,337,cs),
(613,387,o),
(665,465,o),
(674,545,cs),
(682,612,o),
(644,732,o),
(587,767,cs),
(538,797,o),
(475,804,o),
(418,800,cs),
(394,798,o),
(369,794,o),
(345,786,cs),
(311,775,o),
(279,757,o),
(250,736,cs),
(232,724,o),
(213,712,o),
(199,695,cs),
(192,686,o),
(184,671,o),
(179,680,cs),
(153,720,l),
(146,715,o),
(115,697,o),
(105,687,c),
(-17,602,l),
(-12,596,o),
(18,560,o),
(22,553,cs),
(33,538,o),
(93,444,o),
(103,429,cs),
(130,394,o),
(122,389,o),
(167,370,c),
(188,399,o),
(212,427,o),
(238,453,cs),
(265,480,o),
(295,505,o),
(330,521,cs),
(362,535,o),
(432,541,o),
(461,521,cs),
(469,515,o),
(474,504,o),
(477,494,cs),
(481,480,o),
(475,464,o),
(469,450,cs),
(452,408,o),
(420,370,o),
(384,343,cs),
(334,305,o),
(272,283,o),
(212,265,c),
(211,209,o),
(213,194,o),
(222,131,c)
);
},
{
closed = 1;
nodes = (
(321,-57,o),
(262,-100,o),
(410,-6,c),
(394,-11,o),
(378,-3,o),
(375,13,cs),
(369,40,o),
(365,66,o),
(362,92,c),
(301,76,o),
(240,57,o),
(178,45,c),
(187,33,o),
(220,17,o),
(235,15,c),
(244,-78,l)
);
}
);
width = 669;
}
);
note = question;
unicode = 63;
},
{
glyphname = A;
lastChange = "2024-05-24 19:17:51 +0000";
layers = (
{
layerId = m01;
shapes = (
{
closed = 1;
nodes = (
(927,145,l),
(738,208,o),
(980,103,o),
(785,188,c),
(779,203,o),
(744,338,o),
(734,365,c),
(737,368,o),
(794,435,o),
(802,446,c),
(706,513,o),
(618,590,o),
(537,674,c),
(475,637,ls),
(420,603,o),
(368,566,o),
(318,525,cs),
(195,425,o),
(77,311,o),
(-8,177,c),
(113,24,l),
(182,91,o),
(254,155,o),
(330,213,c),
(312,251,l),
(342,267,o),
(373,279,o),
(405,291,cs),
(415,295,o),
(470,313,o),
(481,315,c),
(497,270,o),
(502,222,o),
(508,174,c),
(467,177,l),
(462,85,l),
(540,85,o),
(618,74,o),
(695,59,cs),
(780,42,o),
(866,25,o),
(949,-2,c)
);
},
{
closed = 1;
nodes = (
(235,20,o),
(310,82,o),
(388,150,c),
(361,188,l),
(331,164,o),
(165,11,o),
(137,-15,c),
(165,-48,l)
);
},
{
closed = 1;
nodes = (
(321,321,c),
(363,363,o),
(409,400,o),
(456,437,c),
(472,413,o),
(476,418,o),
(471,382,c),
(420,362,o),
(370,339,o)
);
},
{
closed = 1;
nodes = (
(398,625,l),
(336,625,o),
(271,618,o),
(214,594,cs),
(198,588,o),
(172,582,o),
(181,568,cs),
(299,391,o),
(94,676,o),
(222,498,c)
);
}
);
width = 941;
}
);
note = A;
unicode = (65,97,192,193,194,195,196,197,224,225,226,227,228,229);
},
{
glyphname = B;
lastChange = "2024-05-24 19:17:51 +0000";
layers = (
{
layerId = m01;
shapes = (
{
closed = 1;
nodes = (
(409,-50,o),
(424,-49,o),
(433,-39,c),
(511,-18,o),
(590,13,o),
(655,61,cs),
(674,74,o),
(678,76,o),
(696,104,c),
(685,193,o),
(677,283,o),
(667,373,c),
(612,373,o),
(557,352,o),
(504,336,c),
(548,392,o),
(593,450,o),
(616,518,cs),
(621,533,o),
(629,577,o),
(622,592,cs),
(597,646,ls),
(590,660,o),
(550,683,o),
(536,690,cs),
(494,711,o),
(444,722,o),
(397,717,cs),
(321,709,o),
(245,684,o),
(180,630,c),
(186,595,l),
(77,537,o),
(152,582,o),
(44,517,c),
(85,422,l),
(98,427,o),
(110,431,o),
(122,437,cs),
(130,440,o),
(139,448,o),
(141,440,cs),
(167,364,l),
(170,346,o),
(190,244,o),
(192,227,c),
(167,228,l),
(139,171,o),
(150,214,o),
(119,135,c),
(208,96,o),
(290,42,o),
(367,-17,cs),
(398,-42,ls)
);
},
{
closed = 1;
nodes = (
(44,245,l),
(36,247,o),
(27,249,o),
(19,250,c),
(-4,198,l),
(16,189,l)
);
},
{
closed = 1;
nodes = (
(113,233,l),
(75,240,l),
(43,176,l),
(76,158,l)
);
},
{
closed = 1;
nodes = (
(368,237,l),
(402,245,o),
(436,249,o),
(471,253,c),
(463,221,o),
(449,189,o),
(433,160,cs),
(423,143,o),
(409,128,o),
(393,116,c)
);
},
{
closed = 1;
nodes = (
(301,519,o),
(364,197,o),
(317,424,c),
(342,430,o),
(368,437,o),
(394,445,c),
(391,427,o),
(388,408,o),
(383,391,cs),
(375,364,o),
(362,339,o),
(346,307,c)
);
},
{
closed = 1;
nodes = (
(742,140,o),
(757,161,o),
(765,172,cs),
(771,181,o),
(798,214,o),
(801,225,cs),
(803,231,o),
(794,252,o),
(792,259,cs),
(773,328,ls),
(771,335,o),
(765,359,o),
(759,364,cs),
(756,367,o),
(741,369,o),
(737,370,cs),
(728,372,o),
(717,374,o),
(718,364,cs),
(740,153,ls)
);
}
);
width = 797;
}
);
note = B;
unicode = (66,98);
},
{
glyphname = C;
lastChange = "2024-05-24 19:17:51 +0000";
layers = (
{
layerId = m01;
shapes = (
{
closed = 1;
nodes = (
(666,-3,o),
(682,-8,o),
(677,3,cs),
(627,99,o),
(576,194,o),
(525,289,c),
(519,303,o),
(530,297,o),
(497,304,c),
(433,283,l),
(413,288,o),
(420,257,o),
(423,237,c),
(399,222,o),
(374,209,o),
(347,203,cs),
(283,190,o),
(196,202,o),
(151,257,c),
(261,498,o),
(118,188,o),
(227,434,c),
(258,257,l),
(309,289,o),
(366,311,o),
(423,330,cs),
(430,332,o),
(427,340,o),
(425,348,cs),
(423,356,o),
(427,395,o),
(428,404,cs),
(431,466,o),
(442,588,o),
(447,626,c),
(394,640,o),
(340,652,o),
(279,663,c),
(272,653,o),
(244,592,o),
(238,582,c),
(215,578,o),
(72,566,o),
(49,562,cs),
(36,559,o),
(39,566,o),
(39,540,c),
(41,520,o),
(34,427,o),
(32,408,cs),
(29,386,o),
(12,263,o),
(11,241,cs),
(9,198,o),
(18,150,o),
(45,117,cs),
(90,62,o),
(158,25,o),
(227,7,cs),
(267,-4,o),
(319,-9,o),
(359,0,c),
(413,-3,o),
(468,-1,o),
(522,5,cs),
(542,7,o),
(634,2,o),
(654,-1,cs)
);
},
{
closed = 1;
nodes = (
(480,346,c),
(628,383,o),
(380,320,o),
(536,359,c),
(562,636,o),
(538,310,o),
(565,596,c),
(499,613,ls),
(493,615,o),
(484,613,o),
(481,607,c),
(480,603,o),
(481,587,o),
(480,583,c),
(480,557,o),
(468,401,o),
(468,375,cs),
(468,349,o),
(450,359,o)
);
}
);
width = 665;
}
);
note = C;
unicode = (67,99,199,231);
},
{
glyphname = D;
lastChange = "2024-05-24 19:17:51 +0000";
layers = (
{
layerId = m01;
shapes = (
{
closed = 1;
nodes = (
(367,11,o),
(535,104,o),
(578,143,c),
(595,96,l),
(622,120,o),
(695,195,o),
(701,230,cs),
(715,337,ls),
(716,346,o),
(707,383,o),
(705,392,cs),
(700,412,o),
(677,497,o),
(667,514,cs),
(652,541,o),
(628,562,o),
(603,580,cs),
(583,593,o),
(500,643,o),
(477,649,cs),
(414,665,o),
(348,673,o),
(273,670,c),
(257,651,o),
(167,546,o),
(153,526,c),
(228,513,l),
(131,478,o),
(136,499,o),
(38,448,c),
(55,433,o),
(76,411,o),
(91,391,c),
(125,359,o),
(152,314,o),
(156,267,cs),
(160,216,o),
(122,162,o),
(72,152,cs),
(63,150,o),
(27,151,o),
(16,155,c),
(5,111,o),
(6,137,o),
(6,86,c),
(108,53,o),
(211,19,o),
(315,-11,c)
);
},
{
closed = 1;
nodes = (
(381,235,o),
(365,296,o),
(346,355,c),
(366,346,o),
(475,308,o),
(494,297,c),
(479,280,o),
(406,188,o),
(389,173,c)
);
},
{
closed = 1;
nodes = (
(118,561,o),
(189,647,o),
(201,660,c),
(178,663,o),
(154,663,o),
(131,663,c),
(120,653,o),
(60,588,o),
(48,579,cs),
(38,570,o),
(25,555,o),
(38,553,cs),
(61,551,o),
(84,550,o),
(106,547,c)
);
}
);
width = 718;
}
);
note = D;
unicode = (68,100);
},
{
glyphname = E;
lastChange = "2024-05-24 19:17:51 +0000";
layers = (
{
layerId = m01;
shapes = (
{
closed = 1;
nodes = (
(506,-42,o),
(569,-6,o),
(607,45,c),
(617,34,o),
(620,18,o),
(625,4,cs),
(627,-3,o),
(640,-10,o),
(647,-6,cs),
(666,6,o),
(758,74,o),
(775,89,cs),
(786,99,o),
(795,116,o),
(781,120,cs),
(777,121,o),
(768,133,o),
(765,136,cs),
(719,192,o),
(689,260,o),
(659,325,cs),
(655,335,o),
(649,350,o),
(639,346,cs),
(621,341,o),
(551,297,o),
(536,286,cs),
(373,162,ls),
(335,135,o),
(294,113,o),
(254,90,c),
(228,107,o),
(240,172,o),
(243,202,cs),
(245,223,o),
(282,228,o),
(303,233,cs),
(343,242,o),
(383,252,o),
(423,264,c),
(418,283,o),
(403,330,o),
(386,339,cs),
(379,342,o),
(370,342,o),
(362,340,cs),
(347,338,o),
(270,311,o),
(255,306,c),
(276,391,l),
(281,397,o),
(287,399,o),
(294,396,c),
(390,370,o),
(397,361,o),
(506,352,c),
(520,384,o),
(531,417,o),
(542,449,cs),
(563,510,o),
(581,571,o),
(600,632,c),
(554,649,o),
(326,678,o),
(277,683,c),
(272,659,o),
(250,544,o),
(240,522,cs),
(238,518,o),
(236,499,o),
(234,495,cs),
(232,492,o),
(217,488,o),
(212,486,cs),
(161,466,o),
(109,445,o),
(56,429,cs),
(49,427,o),
(41,422,o),
(40,415,cs),
(37,373,o),
(45,330,o),
(53,289,cs),
(67,207,o),
(93,121,o),
(149,60,cs),
(186,19,o),
(236,-11,o),
(288,-31,cs),
(337,-50,o),
(392,-60,o),
(443,-52,cs)
);
},
{
closed = 1;
nodes = (
(39,551,l),
(27,693,l),
(14,696,o),
(2,685,o),
(1,672,cs),
(0,656,o),
(9,567,o),
(10,551,c)
);
},
{
closed = 1;
nodes = (
(117,553,o),
(186,553,o),
(200,555,c),
(215,689,l),
(179,691,o),
(143,692,o),
(106,692,c),
(106,672,o),
(100,572,o),
(103,553,c)
);
}
);
width = 778;
}
);
note = E;
unicode = (69,101,200,201,202,203,232,233,234,235);
},
{
glyphname = F;
lastChange = "2024-05-24 19:17:51 +0000";
layers = (
{
layerId = m01;
shapes = (
{
closed = 1;
nodes = (
(410,-158,o),
(416,-152,o),
(418,-142,c),
(440,-123,o),
(579,-14,o),
(601,6,cs),
(608,12,o),
(626,31,o),
(628,39,cs),
(631,58,o),
(599,96,o),
(588,112,cs),
(578,126,o),
(524,212,o),
(514,227,c),
(557,217,l),
(615,210,o),
(561,205,o),
(632,212,c),
(602,285,o),
(589,329,o),
(545,401,c),
(539,390,o),
(493,342,o),
(486,332,cs),
(475,316,o),
(458,319,o),
(457,339,c),
(396,471,l),
(466,441,o),
(614,424,o),
(692,433,c),
(691,426,o),
(690,386,o),
(691,379,c),
(730,376,l),
(760,488,l),
(789,629,l),
(779,635,o),
(738,634,o),
(726,634,cs),
(671,634,o),
(616,636,o),
(562,642,cs),
(509,648,o),
(457,661,o),
(402,676,c),
(397,674,o),
(390,660,o),
(388,653,c),
(382,650,o),
(368,633,o),
(364,627,cs),
(331,580,o),
(288,540,o),
(242,506,cs),
(217,488,o),
(189,476,o),
(163,461,c),
(178,409,o),
(206,361,o),
(229,311,cs),
(265,236,o),
(273,229,o),
(299,144,c),
(170,134,l),
(245,37,o),
(322,-58,o),
(403,-150,cs)
);
},
{
closed = 1;
nodes = (
(118,-27,o),
(142,-17,o),
(150,-12,cs),
(211,20,l),
(114,146,ls),
(104,159,o),
(43,224,o),
(32,235,c),
(-8,209,l),
(86,5,ls),
(91,-7,o),
(97,-21,o),
(109,-25,cs)
);
}
);
width = 785;
}
);
note = F;
unicode = (70,102);
},
{
glyphname = G;
lastChange = "2024-05-24 19:17:51 +0000";
layers = (
{
layerId = m01;
shapes = (
{
closed = 1;
nodes = (
(466,-34,o),
(495,-21,o),
(519,-4,cs),
(543,12,o),
(563,33,o),
(583,55,c),
(599,24,l),
(680,64,o),
(760,102,o),
(843,137,c),
(829,221,o),
(814,305,o),
(798,388,cs),
(796,401,o),
(792,416,o),
(779,414,c),
(753,404,ls),
(655,370,o),
(548,363,o),
(445,372,cs),
(407,375,o),
(368,381,o),
(332,394,c),
(303,310,l),
(336,289,o),
(354,271,o),
(368,236,c),
(279,265,o),
(306,249,o),
(221,301,c),
(260,390,o),
(259,411,o),
(323,493,c),
(387,463,o),
(453,437,o),
(529,423,c),
(595,550,o),
(555,453,o),
(610,587,c),
(610,587,o),
(339,642,o),
(329,645,c),
(242,514,o),
(116,412,o),
(-9,318,c),
(17,293,o),
(139,134,o),
(163,108,cs),
(207,61,o),
(255,16,o),
(311,-13,cs),
(349,-32,o),
(394,-44,o),
(437,-38,cs)
);
},
{
closed = 1;
nodes = (
(621,-45,o),
(632,-41,o),
(637,-32,c),
(816,9,ls),
(822,10,o),
(830,10,o),
(841,13,c),
(850,6,o),
(863,14,o),
(861,26,cs),
(848,107,l),
(764,71,o),
(683,32,o),
(601,-8,c),
(602,-14,o),
(608,-34,o),
(613,-38,cs)
);
},
{
closed = 1;
nodes = (
(616,407,c),
(714,581,l),
(692,581,o),
(671,582,o),
(649,584,c),
(637,561,o),
(567,433,o),
(556,410,c),
(581,404,ls),
(601,400,o),
(610,388,o)
);
}
);
width = 861;
}
);
note = G;
unicode = (71,103);
},
{
glyphname = H;
lastChange = "2024-05-24 19:17:51 +0000";
layers = (
{
layerId = m01;
shapes = (
{
closed = 1;
nodes = (
(370,14,ls),
(377,20,o),
(388,25,o),
(388,34,cs),
(387,89,o),
(378,145,o),
(376,201,cs),
(374,251,o),
(373,301,o),
(368,350,c),
(427,323,o),
(486,296,o),
(540,262,c),
(528,230,o),
(517,197,o),
(508,164,cs),
(494,114,o),
(488,61,o),
(489,1,c),
(619,-3,o),
(761,2,o),
(901,7,c),
(887,105,ls),
(886,116,o),
(873,116,o),
(862,115,cs),
(799,108,l),
(795,327,ls),
(795,333,o),
(790,337,o),
(793,349,c),
(791,360,o),
(768,377,o),
(758,382,cs),
(742,390,o),
(648,425,o),
(632,432,cs),
(579,455,o),
(518,483,o),
(466,523,c),
(465,523,o),
(459,517,o),
(446,513,cs),
(439,510,o),
(406,487,o),
(400,482,cs),
(383,469,o),
(367,454,o),
(352,439,c),
(344,534,ls),
(343,542,o),
(356,546,o),
(363,550,cs),
(416,586,l),
(496,630,l),
(478,663,l),
(329,611,l),
(105,524,l),
(133,424,o),
(149,306,o),
(167,196,c),
(108,200,l),
(92,121,l),
(145,99,o),
(197,73,o),
(246,43,c),
(247,42,o),
(319,-5,o),
(331,-16,c)
);
},
{
closed = 1;
nodes = (
(314,637,ls),
(334,645,o),
(456,687,o),
(476,694,c),
(472,707,o),
(464,751,o),
(454,759,cs),
(448,764,o),
(429,764,o),
(410,758,c),
(347,746,o),
(284,734,o),
(222,719,cs),
(201,713,o),
(90,681,o),
(69,672,cs),
(12,644,ls),
(4,640,o),
(-11,638,o),
(-8,629,cs),
(30,527,l)
);
}
);
width = 893;
}
);
note = H;
unicode = (72,104);
},
{
glyphname = I;
lastChange = "2024-05-24 19:17:51 +0000";
layers = (
{
layerId = m01;
shapes = (
{
closed = 1;
nodes = (
(405,15,o),
(478,122,o),
(560,221,cs),
(566,228,o),
(554,240,o),
(549,248,cs),
(520,291,o),
(554,254,o),
(514,298,c),
(498,284,o),
(471,260,o),
(453,235,c),
(442,224,o),
(451,227,o),
(432,225,c),
(365,401,ls),
(363,408,o),
(357,414,o),
(357,421,c),
(335,412,o),
(208,353,o),
(187,343,c),
(191,294,o),
(194,244,o),
(196,195,cs),
(197,187,o),
(200,172,o),
(192,172,cs),
(168,172,o),
(144,178,o),
(120,183,cs),
(103,186,o),
(86,194,o),
(69,194,c),
(61,177,o),
(14,83,o),
(8,64,c),
(119,11,o),
(231,-40,o),
(340,-96,c)
);
},
{
closed = 1;
nodes = (
(100,336,o),
(299,428,o),
(332,443,cs),
(382,466,o),
(434,487,o),
(485,507,c),
(466,549,ls),
(462,560,o),
(465,555,o),
(441,569,c),
(361,561,l),
(334,521,o),
(280,493,o),
(232,495,cs),
(209,496,o),
(150,530,o),
(141,539,c),
(96,534,o),
(51,530,o),
(6,530,c),
(67,322,l)
);
},
{
closed = 1;
nodes = (
(261,522,o),
(315,547,o),
(332,572,cs),
(345,591,o),
(357,625,o),
(342,642,cs),
(337,649,o),
(310,665,o),
(303,669,cs),
(251,696,o),
(189,664,o),
(163,611,cs),
(160,606,o),
(155,591,o),
(157,585,cs),
(162,574,o),
(168,563,o),
(175,553,cs),
(187,537,o),
(210,527,o),
(231,525,cs)
);
}
);
width = 556;
}
);
note = I;
unicode = (73,105,204,205,206,207,236,237,238,239);
},
{
glyphname = J;
lastChange = "2024-05-24 19:17:51 +0000";
layers = (
{
layerId = m01;
shapes = (
{
closed = 1;
nodes = (
(408,-57,o),
(450,-61,o),
(490,-51,cs),
(530,-40,o),
(534,-49,o),
(572,-15,c),
(603,9,o),
(635,35,o),
(655,69,cs),
(684,118,o),
(696,181,o),
(684,236,cs),
(673,284,o),
(644,326,o),
(614,365,cs),
(591,395,o),
(569,425,o),
(543,452,c),
(575,468,o),
(559,450,o),
(585,480,c),
(554,550,l),
(469,512,o),
(383,474,o),
(298,434,c),
(304,427,o),
(310,420,o),
(317,414,cs),
(326,407,o),
(350,366,o),
(355,356,cs),
(377,317,o),
(398,276,o),
(404,232,cs),
(411,180,o),
(404,135,o),
(354,115,c),
(340,112,o),
(322,116,o),
(311,126,cs),
(285,153,o),
(285,258,o),
(292,304,c),
(204,342,l),
(197,333,o),
(166,294,o),
(157,287,cs),
(127,263,o),
(96,240,o),
(65,218,cs),
(-8,167,l),
(28,105,l),
(46,112,o),
(63,122,o),
(79,131,c),
(121,79,o),
(173,33,o),
(229,-4,cs),
(270,-31,o),
(320,-43,o),
(368,-51,cs)
);
},
{
closed = 1;
nodes = (
(286,481,o),
(443,560,o),
(532,604,c),
(505,668,o),
(513,655,o),
(477,723,c),
(430,706,o),
(152,606,o),
(106,587,c),
(157,503,o),
(138,525,o),
(203,441,c)
);
}
);
width = 688;
}
);
note = J;
unicode = (74,106);
},
{
glyphname = K;
lastChange = "2024-05-24 19:18:58 +0000";
layers = (
{
layerId = m01;
shapes = (
{
closed = 1;
nodes = (
(606,-58,o),
(612,-46,o),
(621,-40,cs),
(636,-29,o),
(689,40,o),
(701,54,cs),
(747,109,o),
(795,162,o),
(841,218,c),
(821,238,o),
(801,258,o),
(782,279,cs),
(774,287,o),
(777,289,o),
(767,270,c),
(762,267,o),
(747,250,o),
(743,245,cs),
(700,197,l),
(678,207,o),
(568,219,o),
(543,223,c),
(612,275,o),
(630,248,o),
(708,384,c),
(461,516,l),
(430,474,o),
(400,432,o),
(375,386,cs),
(371,380,o),
(372,372,o),
(368,366,c),
(364,494,o),
(364,623,o),
(368,751,c),
(345,746,o),
(259,694,o),
(239,682,cs),
(93,594,o),
(129,631,o),
(-1,509,c),
(37,406,l),
(53,412,o),
(72,419,o),
(90,425,c),
(205,93,l),
(65,110,l),
(64,99,o),
(53,39,o),
(51,28,c),
(67,26,o),
(155,12,o),
(171,11,cs),
(297,4,o),
(297,-5,o),
(437,5,c),
(435,11,o),
(405,120,o),
(408,125,c),
(434,98,o),
(473,67,o),
(495,42,cs),
(597,-65,l)
);
},
{
closed = 1;
nodes = (
(401,205,o),
(391,300,o),
(388,316,c),
(388,323,o),
(386,322,o),
(408,319,c),
(469,280,ls),
(476,275,o),
(488,273,o),
(482,266,c),
(403,189,l)
);
}
);
width = 832;
}
);
note = K;
unicode = (75,107);
},
{
glyphname = L;
lastChange = "2024-05-24 19:17:51 +0000";
layers = (
{
layerId = m01;
shapes = (
{
closed = 1;
nodes = (
(537,-10,c),
(605,25,o),
(672,61,o),
(739,98,c),
(707,169,o),
(663,286,o),
(619,358,c),
(512,339,ls),
(504,338,o),
(510,326,o),
(510,318,cs),
(511,306,o),
(520,244,o),
(523,232,c),
(439,212,o),
(355,195,o),
(271,180,c),
(361,290,ls),
(372,303,o),
(389,312,o),
(397,327,c),
(403,348,l),
(278,703,l),
(272,700,o),
(264,702,o),
(258,698,cs),
(252,693,o),
(219,681,o),
(212,678,cs),
(159,654,o),
(107,629,o),
(52,611,cs),
(22,601,o),
(24,612,o),
(-5,589,c),
(22,506,ls),
(28,488,o),
(54,494,o),
(72,497,c),
(86,466,o),
(145,288,o),
(156,256,cs),
(158,249,o),
(161,228,o),
(160,221,c),
(152,193,o),
(75,114,o),
(55,92,c),
(71,53,l),
(149,44,ls),
(340,15,o),
(334,12,o)
);
},
{
closed = 1;
nodes = (
(824,170,l),
(767,293,o),
(793,250,o),
(719,373,c),
(657,349,l),
(699,274,o),
(732,194,o),
(770,116,c)
);
}
);
width = 824;
}
);
note = L;
unicode = (76,108);
},
{
glyphname = M;
lastChange = "2024-05-24 19:17:51 +0000";
layers = (
{
layerId = m01;
shapes = (
{
closed = 1;
nodes = (
(861,-51,l),
(865,-43,o),
(873,-36,o),
(872,-27,c),
(911,29,o),
(961,117,o),
(1005,202,c),
(988,244,o),
(973,287,o),
(959,330,c),
(921,299,o),
(954,315,o),
(905,292,c),
(879,378,o),
(851,463,o),
(834,551,c),
(899,539,l),
(883,592,o),
(879,617,o),
(856,675,c),
(729,669,o),
(601,665,o),
(474,674,c),
(458,643,l),
(468,635,o),
(492,641,o),
(486,630,cs),
(459,586,o),
(495,646,o),
(464,589,cs),
(451,568,o),
(376,414,o),
(365,389,c),
(259,588,o),
(357,434,o),
(233,629,c),
(19,548,l),
(17,477,ls),
(17,468,o),
(25,482,o),
(36,469,c),
(49,393,o),
(55,315,o),
(53,238,c),
(46,240,o),
(32,241,o),
(8,238,c),
(16,143,l),
(237,119,o),
(39,126,o),
(260,118,c),
(258,202,o),
(257,286,o),
(251,370,cs),
(250,380,o),
(248,391,o),
(248,401,c),
(288,330,o),
(329,259,o),
(366,187,cs),
(374,170,o),
(389,134,o),
(410,104,c),
(461,92,o),
(511,77,o),
(561,63,c),
(585,266,o),
(549,-37,o),
(571,182,cs),
(581,263,o),
(596,344,o),
(624,421,c),
(651,320,o),
(651,426,o),
(668,195,c),
(657,192,o),
(638,192,o),
(639,181,cs),
(639,133,o),
(640,85,o),
(642,37,c)
);
}
);
width = 1001;
}
);
note = M;
unicode = (77,109);
},
{
glyphname = N;
lastChange = "2024-05-24 19:17:51 +0000";
layers = (
{
layerId = m01;
shapes = (
{
closed = 1;
nodes = (
(147,-9,l),
(199,17,o),
(253,40,o),
(308,61,cs),
(347,77,o),
(387,93,o),
(429,102,c),
(426,161,l),
(416,161,o),
(406,159,o),
(396,157,c),
(386,259,ls),
(381,320,o),
(380,382,o),
(384,443,cs),
(384,444,o),
(387,443,o),
(404,460,c),
(431,477,o),
(460,493,o),
(492,496,cs),
(508,497,o),
(529,488,o),
(536,473,cs),
(540,465,o),
(539,455,o),
(539,446,c),
(518,283,ls),
(514,250,o),
(498,70,o),
(498,36,cs),
(498,27,o),
(508,21,o),
(515,15,cs),
(543,-14,l),
(635,23,o),
(731,54,o),
(827,81,cs),
(836,83,o),
(834,100,o),
(834,109,c),
(824,186,l),
(724,191,l),
(739,342,l),
(811,361,l),
(857,375,l),
(852,400,o),
(842,425,o),
(831,448,cs),
(797,524,o),
(745,587,o),
(678,635,c),
(674,639,o),
(651,655,o),
(645,657,cs),
(576,688,o),
(497,696,o),
(422,690,cs),
(312,681,o),
(207,640,o),
(106,597,c),
(107,584,o),
(116,522,o),
(120,509,c),
(145,515,o),
(174,518,o),
(196,507,cs),
(211,500,o),
(225,484,o),
(224,468,cs),
(223,442,o),
(184,402,o),
(162,389,c),
(149,376,o),
(156,399,o),
(147,373,c),
(165,158,l),
(167,114,l),
(156,105,o),
(104,52,o),
(95,41,c)
);
},
{
closed = 1;
nodes = (
(60,483,o),
(77,492,o),
(96,500,c),
(92,520,o),
(74,637,o),
(66,661,c),
(-7,633,l),
(18,543,ls),
(20,533,o),
(40,481,o),
(44,471,c)
);
}
);
width = 859;
}
);
note = N;
unicode = (78,110,209,241);
},
{
glyphname = O;
lastChange = "2024-05-24 19:17:51 +0000";
layers = (
{
layerId = m01;
shapes = (
{
closed = 1;
nodes = (
(394,-6,o),
(423,-2,o),
(430,-1,cs),
(510,11,o),
(594,49,o),
(644,112,cs),
(667,140,o),
(683,173,o),
(697,206,cs),
(718,256,o),
(737,311,o),
(734,366,cs),
(731,410,o),
(713,454,o),
(689,491,cs),
(654,546,o),
(603,590,o),
(551,629,cs),
(526,649,o),
(537,650,o),
(491,654,c),
(435,578,l),
(416,578,o),
(398,575,o),
(379,575,cs),
(270,573,o),
(162,559,o),
(55,543,c),
(35,447,o),
(16,350,o),
(1,252,c),
(25,216,o),
(51,181,o),
(82,151,cs),
(164,72,o),
(274,13,o),
(387,-5,cs)
);
},
{
closed = 1;
nodes = (
(337,133,o),
(309,159,o),
(287,189,cs),
(274,207,o),
(262,229,o),
(261,251,cs),
(258,292,o),
(278,331,o),
(291,370,cs),
(300,393,o),
(350,519,o),
(360,541,c),
(376,542,o),
(391,542,o),
(408,539,c),
(399,522,o),
(365,461,o),
(365,443,c),
(379,450,o),
(508,373,c),
(470,283,o),
(421,199,o),
(365,109,c)
);
},
{
closed = 1;
nodes = (
(278,600,o),
(424,597,o),
(428,604,cs),
(438,621,o),
(427,673,o),
(413,682,cs),
(404,688,o),
(368,683,o),
(358,682,cs),
(322,680,o),
(204,668,o),
(202,659,cs),
(199,643,o),
(207,616,o),
(214,594,c)
);
}
);
width = 736;
}
);
note = O;
unicode = (79,111,210,211,212,213,214,216,242,243,244,245,246,248);
},
{
glyphname = P;
lastChange = "2024-05-24 19:17:51 +0000";
layers = (
{
layerId = m01;
shapes = (
{
closed = 1;
nodes = (
(505,-162,o),
(500,-153,o),
(500,-146,c),
(498,-132,o),
(492,-56,o),
(491,-42,c),
(398,-6,l),
(396,-2,o),
(396,13,o),
(396,17,cs),
(398,89,o),
(399,161,o),
(410,228,c),
(448,208,o),
(668,97,o),
(708,80,c),
(715,89,o),
(766,140,o),
(773,148,cs),
(844,231,o),
(850,216,o),
(896,324,c),
(695,527,o),
(738,491,o),
(522,689,c),
(503,677,o),
(483,659,o),
(443,639,cs),
(366,599,l),
(275,645,l),
(268,629,o),
(232,540,o),
(227,524,cs),
(181,389,o),
(133,255,o),
(90,119,cs),
(84,100,o),
(60,2,o),
(56,-17,c),
(76,-27,o),
(194,-74,o),
(215,-83,cs),
(304,-118,o),
(397,-144,o),
(489,-168,cs),
(505,-171,o),
(484,-155,o),
(502,-169,c)
);
},
{
closed = 1;
nodes = (
(137,432,c),
(168,511,o),
(197,591,o),
(225,670,c),
(149,699,l),
(66,600,o),
(97,642,o),
(-6,503,c),
(107,444,o),
(15,481,o)
);
},
{
closed = 1;
nodes = (
(479,307,o),
(498,292,o),
(408,350,c),
(414,448,l),
(468,461,o),
(486,475,o),
(547,465,c),
(566,266,l)
);
}
);
width = 890;
}
);
note = P;
unicode = (80,112);
},
{
glyphname = Q;
lastChange = "2024-05-24 19:17:51 +0000";
layers = (
{
layerId = m01;
shapes = (
{
closed = 1;
nodes = (
(772,-112,o),
(834,-19,o),
(897,74,cs),
(908,89,o),
(913,114,o),
(895,110,c),
(824,146,l),
(803,154,o),
(808,168,o),
(795,135,c),
(786,125,o),
(778,114,o),
(770,103,c),
(716,134,o),
(693,136,o),
(649,186,c),
(670,239,o),
(689,293,o),
(707,348,cs),
(721,393,o),
(734,440,o),
(740,488,cs),
(743,513,o),
(744,509,o),
(738,544,c),
(486,657,l),
(477,660,o),
(480,659,o),
(457,658,c),
(438,571,ls),
(435,555,o),
(420,550,o),
(409,562,cs),
(407,565,o),
(404,566,o),
(388,581,c),
(262,547,o),
(136,512,o),
(9,481,c),
(9,449,o),
(8,417,o),
(14,385,cs),
(34,281,o),
(62,174,o),
(119,85,cs),
(152,33,o),
(206,-18,o),
(267,-28,cs),
(324,-37,o),
(382,-24,o),
(437,-8,cs),
(459,-2,o),
(480,6,o),
(499,18,c),
(558,-56,o),
(617,-130,o),
(675,-205,cs),
(681,-213,o),
(702,-207,o),
(711,-206,c)
);
},
{
closed = 1;
nodes = (
(420,188,o),
(392,185,o),
(383,193,cs),
(373,201,o),
(347,244,o),
(341,256,cs),
(319,301,o),
(307,351,o),
(307,413,c),
(317,423,o),
(383,485,o),
(393,496,c),
(387,439,l),
(389,438,o),
(408,434,o),
(422,424,c),
(479,405,l),
(465,333,o),
(451,261,o),
(431,190,c)
);
},
{
closed = 1;
nodes = (
(51,551,cs),
(75,556,o),
(99,554,o),
(122,558,c),
(188,577,l),
(345,626,l),
(343,633,o),
(344,646,o),
(337,646,cs),
(229,646,o),
(120,646,o),
(12,644,c),
(9,620,o),
(14,596,o),
(20,573,cs),
(24,557,o),
(30,546,o)
);
},
{
closed = 1;
nodes = (
(331,692,l),
(189,805,l),
(179,796,o),
(142,759,o),
(136,747,cs),
(127,730,o),
(141,710,o),
(159,718,c),
(166,714,o),
(195,698,o),
(204,698,cs)
);
}
);
width = 896;
}
);
note = Q;
unicode = (81,113);
},
{
glyphname = R;
lastChange = "2024-05-24 19:17:51 +0000";
layers = (
{
layerId = m01;
shapes = (
{
closed = 1;
nodes = (
(337,5,l),
(332,8,o),
(315,25,o),
(311,29,c),
(317,57,o),
(333,107,o),
(344,139,c),
(377,104,o),
(413,72,o),
(453,47,cs),
(521,5,o),
(598,-23,o),
(677,-35,cs),
(746,-47,o),
(768,-43,o),
(842,-33,c),
(825,55,o),
(810,143,o),
(795,230,cs),
(794,237,o),
(793,246,o),
(786,246,c),
(725,239,l),
(724,187,l),
(637,188,o),
(548,197,o),
(466,227,cs),
(419,246,l),
(378,202,ls),
(370,194,o),
(355,176,o),
(358,188,cs),
(380,276,o),
(390,325,o),
(411,427,c),
(444,405,o),
(471,370,o),
(482,332,cs),
(486,318,o),
(486,302,o),
(484,288,cs),
(483,281,o),
(469,265,o),
(464,260,c),
(504,243,o),
(547,233,o),
(589,227,c),
(612,240,o),
(636,252,o),
(655,269,cs),
(675,286,o),
(693,305,o),
(708,326,cs),
(717,339,o),
(745,391,o),
(747,407,cs),
(748,415,o),
(754,449,o),
(752,456,cs),
(746,490,o),
(735,523,o),
(719,554,cs),
(717,557,o),
(711,570,o),
(708,573,cs),
(655,618,o),
(593,658,o),
(525,673,cs),
(470,685,o),
(408,678,o),
(354,658,cs),
(337,652,o),
(304,628,o),
(287,617,c),
(235,642,l),
(170,678,l),
(53,479,l),
(65,458,o),
(82,440,o),
(97,422,c),
(128,464,l),
(145,443,o),
(163,419,o),
(167,393,cs),
(172,361,o),
(171,327,o),
(163,296,cs),
(148,235,o),
(117,178,o),
(75,122,c),
(43,137,ls),
(36,141,o),
(31,131,o),
(26,125,cs),
(0,90,o),
(24,130,o),
(-5,80,c),
(88,3,o),
(201,-57,o),
(319,-81,c)
);
}
);
width = 834;
}
);
note = R;
unicode = (82,114);
},
{
glyphname = S;
lastChange = "2024-05-24 19:17:51 +0000";
layers = (
{
layerId = m01;
shapes = (
{
closed = 1;
nodes = (
(474,-17,o),
(519,-21,o),
(563,-12,cs),
(613,-1,o),
(658,25,o),
(701,51,cs),
(754,81,o),
(800,126,o),
(831,178,cs),
(838,190,o),
(848,223,o),
(853,249,cs),
(862,291,o),
(844,342,o),
(812,370,cs),
(777,399,o),
(728,413,o),
(682,415,cs),
(590,418,o),
(499,403,o),
(407,392,cs),
(391,390,o),
(312,379,o),
(296,380,c),
(286,436,o),
(280,427,o),
(288,487,c),
(351,459,o),
(421,446,o),
(489,447,cs),
(566,448,o),
(544,416,o),
(677,493,c),
(684,518,o),
(735,653,o),
(744,678,c),
(654,685,l),
(645,662,l),
(596,678,o),
(544,685,o),
(492,687,cs),
(435,689,o),
(376,679,o),
(323,660,cs),
(286,646,o),
(250,627,o),
(221,599,cs),
(201,579,o),
(187,554,o),
(175,528,cs),
(168,513,o),
(170,454,o),
(171,437,cs),
(172,427,o),
(177,391,o),
(182,382,cs),
(209,339,o),
(228,317,o),
(284,267,c),
(330,285,o),
(374,308,o),
(422,318,cs),
(446,324,o),
(476,322,o),
(495,306,cs),
(509,293,o),
(506,269,o),
(493,254,cs),
(472,227,o),
(437,210,o),
(404,199,cs),
(369,187,o),
(303,189,o),
(269,202,c),
(248,213,o),
(230,229,o),
(213,245,cs),
(181,275,o),
(228,278,o),
(123,333,c),
(115,329,o),
(84,312,o),
(76,310,c),
(99,236,o),
(116,173,o),
(153,91,c),
(189,59,o),
(233,37,o),
(277,21,cs),
(326,4,o),
(377,-9,o),
(429,-13,cs)
);
},
{
closed = 1;
nodes = (
(15,195,o),
(24,203,o),
(31,206,cs),
(60,218,o),
(52,193,o),
(72,224,c),
(51,291,l),
(14,265,o),
(40,302,o),
(-4,248,c),
(11,202,l)
);
}
);
width = 853;
}
);
note = S;
unicode = (83,115);
},
{
glyphname = T;
lastChange = "2024-05-24 19:17:51 +0000";
layers = (
{
layerId = m01;
shapes = (
{
closed = 1;
nodes = (
(498,-16,o),
(586,-5,o),
(620,5,c),
(641,14,o),
(661,24,o),
(682,35,c),
(689,127,o),
(698,220,o),
(715,311,c),
(659,299,l),
(635,239,l),
(554,227,l),
(470,223,o),
(473,205,o),
(347,277,c),
(404,341,l),
(270,368,l),
(230,344,o),
(112,313,o),
(57,305,c),
(40,263,o),
(23,254,o),
(32,194,c),
(55,157,o),
(90,129,o),
(126,105,cs),
(179,69,o),
(238,43,o),
(298,21,cs),
(352,3,o),
(408,-12,o),
(465,-15,cs)
);
},
{
closed = 1;
nodes = (
(648,356,c),
(649,362,o),
(657,384,o),
(658,389,cs),
(687,493,o),
(711,478,o),
(718,593,c),
(656,587,o),
(592,585,o),
(531,595,cs),
(501,599,o),
(325,644,o),
(296,650,cs),
(238,660,o),
(176,660,o),
(120,642,c),
(121,644,o),
(33,422,o),
(35,432,c),
(107,432,o),
(178,417,o),
(248,403,cs),
(330,386,o),
(412,368,o),
(496,359,cs),
(549,352,l),
(593,339,o),
(608,333,o)
);
},
{
closed = 1;
nodes = (
(555,657,o),
(574,673,o),
(572,704,c),
(504,704,l),
(494,703,o),
(491,670,o),
(482,649,c),
(542,634,l)
);
}
);
width = 732;
}
);
note = T;
unicode = (84,116);
},
{
glyphname = U;
lastChange = "2024-05-24 19:17:51 +0000";
layers = (
{
layerId = m01;
shapes = (
{
closed = 1;
nodes = (
(667,36,o),
(712,92,o),
(763,143,c),
(754,182,o),
(747,221,o),
(740,260,c),
(724,251,o),
(710,240,o),
(695,231,c),
(680,289,o),
(666,347,o),
(653,406,c),
(689,436,o),
(724,466,o),
(756,511,c),
(737,529,o),
(629,638,o),
(611,657,c),
(567,633,o),
(526,603,o),
(486,573,cs),
(454,549,o),
(421,525,o),
(393,497,c),
(417,418,l),
(473,447,l),
(463,415,o),
(461,382,o),
(458,348,cs),
(455,294,o),
(455,239,o),
(459,185,c),
(425,188,o),
(389,197,o),
(362,217,cs),
(323,246,o),
(292,291,o),
(281,338,cs),
(276,362,o),
(280,387,o),
(284,411,cs),
(295,474,o),
(322,535,o),
(351,592,c),
(285,620,o),
(221,650,o),
(156,679,c),
(144,668,o),
(97,601,o),
(88,587,cs),
(71,561,o),
(55,533,o),
(39,506,c),
(45,495,o),
(52,485,o),
(59,475,cs),
(63,468,o),
(91,438,o),
(96,432,c),
(-4,305,l),
(27,262,o),
(59,220,o),
(96,182,cs),
(172,105,o),
(261,37,o),
(358,-11,cs),
(364,-14,o),
(369,-3,o),
(374,1,cs),
(391,14,o),
(400,35,o),
(413,52,cs),
(466,117,l),
(480,39,o),
(460,94,o),
(491,11,c),
(623,-20,l)
);
},
{
closed = 1;
nodes = (
(831,210,l),
(799,296,l),
(787,289,o),
(776,292,o),
(768,274,c),
(789,162,l)
);
}
);
width = 827;
}
);
note = U;
unicode = (85,117,217,218,219,220,249,250,251,252);
},
{
glyphname = V;
lastChange = "2024-05-24 19:17:51 +0000";
layers = (
{
layerId = m01;
shapes = (
{
closed = 1;
nodes = (
(498,99,o),
(578,228,o),
(664,349,cs),
(693,390,o),
(724,430,o),
(758,467,c),
(607,606,o),
(722,510,o),
(558,647,c),
(499,608,o),
(433,578,o),
(369,548,c),
(387,434,l),
(427,427,ls),
(434,425,o),
(468,405,o),
(475,402,c),
(399,319,o),
(327,232,o),
(259,142,c),
(287,276,ls),
(292,298,o),
(316,387,o),
(312,409,cs),
(309,429,o),
(297,446,o),
(286,463,cs),
(251,519,o),
(214,574,o),
(177,629,c),
(167,618,o),
(109,551,o),
(99,541,cs),
(78,517,o),
(23,467,o),
(-9,441,c),
(-10,436,o),
(1,428,o),
(5,424,cs),
(20,408,o),
(87,342,o),
(96,323,cs),
(100,313,o),
(107,267,o),
(108,256,cs),
(115,191,o),
(117,126,o),
(120,62,c),
(160,49,o),
(407,-29,o),
(448,-41,c)
);
},
{
closed = 1;
nodes = (
(813,536,l),
(749,589,o),
(684,640,o),
(620,692,c),
(580,670,l),
(604,645,o),
(752,515,o),
(777,492,c)
);
},
{
closed = 1;
nodes = (
(878,608,l),
(782,686,o),
(815,665,o),
(705,739,c),
(649,709,l),
(672,690,o),
(818,587,o),
(842,569,c)
);
}
);
width = 866;
}
);
note = V;
unicode = (86,118);
},
{
glyphname = W;
lastChange = "2024-05-24 19:17:51 +0000";
layers = (
{
layerId = m01;
shapes = (
{
closed = 1;
nodes = (
(780,-61,o),
(855,20,o),
(866,42,cs),
(873,56,o),
(914,134,o),
(920,148,cs),
(950,219,o),
(964,297,o),
(967,374,cs),
(970,425,o),
(968,476,o),
(957,526,c),
(1009,548,o),
(991,538,o),
(1045,570,c),
(1006,679,l),
(811,619,l),
(537,532,l),
(562,441,l),
(581,446,o),
(601,448,o),
(619,441,cs),
(646,432,o),
(671,412,o),
(684,388,cs),
(697,362,o),
(698,331,o),
(696,302,cs),
(694,260,o),
(686,218,o),
(674,178,c),
(638,218,o),
(560,303,o),
(508,355,c),
(492,363,o),
(485,382,o),
(471,392,c),
(459,321,o),
(445,249,o),
(422,181,c),
(319,189,l),
(361,283,ls),
(374,313,o),
(389,345,o),
(391,377,cs),
(392,401,o),
(383,426,o),
(370,446,cs),
(358,463,o),
(299,551,o),
(284,566,cs),
(277,573,o),
(271,585,o),
(264,577,cs),
(101,393,l),
(120,362,o),
(143,333,o),
(162,302,c),
(160,224,o),
(169,276,o),
(154,195,c),
(70,202,l),
(54,159,o),
(49,161,o),
(55,110,c),
(252,75,o),
(295,68,o),
(491,-13,cs),
(525,-27,l),
(542,37,o),
(556,103,o),
(558,170,c),
(578,142,o),
(599,115,o),
(617,86,cs),
(645,40,o),
(669,-9,o),
(688,-59,c),
(764,-79,l)
);
},
{
closed = 1;
nodes = (
(76,426,o),
(221,580,o),
(246,605,c),
(211,641,l),
(114,563,ls),
(99,551,o),
(11,486,o),
(-3,473,c),
(52,401,l)
);
}
);
width = 1042;
}
);
note = W;
unicode = (87,119);
},
{
glyphname = X;
lastChange = "2024-05-24 19:17:51 +0000";
layers = (
{
layerId = m01;
shapes = (
{
closed = 1;
nodes = (
(299,-85,l),
(337,6,o),
(395,88,o),
(464,165,c),
(521,113,ls),
(588,56,o),
(658,0,o),
(735,-43,c),
(1024,46,l),
(1051,55,l),
(999,142,o),
(947,229,o),
(898,317,cs),
(879,351,o),
(862,386,o),
(849,422,c),
(814,380,o),
(779,337,o),
(752,290,c),
(743,294,o),
(702,326,o),
(694,333,cs),
(645,372,o),
(601,417,o),
(557,462,cs),
(486,534,o),
(423,615,o),
(356,695,c),
(273,668,o),
(201,640,o),
(113,596,c),
(68,428,l),
(212,428,l),
(250,381,o),
(291,337,o),
(332,293,c),
(269,210,o),
(334,284,o),
(261,201,c),
(133,270,o),
(223,250,o),
(81,312,c),
(-5,223,l),
(116,37,o),
(72,84,o),
(224,-92,c)
);
},
{
closed = 1;
nodes = (
(718,460,o),
(762,504,o),
(816,524,cs),
(849,537,o),
(885,541,o),
(919,544,c),
(921,558,o),
(919,573,o),
(926,585,c),
(670,694,l),
(659,683,o),
(660,684,o),
(642,655,c),
(587,601,o),
(599,621,o),
(554,549,c),
(592,501,o),
(633,456,o),
(679,417,c)
);
}
);
width = 1041;
}
);
note = X;
unicode = (88,120);
},
{
glyphname = Y;
lastChange = "2024-05-24 19:17:51 +0000";
layers = (
{
layerId = m01;
shapes = (
{
closed = 1;
nodes = (
(186,-193,o),
(246,-161,o),
(305,-130,cs),
(319,-122,o),
(402,-81,o),
(416,-75,cs),
(522,-27,o),
(630,18,o),
(741,49,cs),
(815,71,o),
(892,84,o),
(968,94,c),
(987,133,l),
(940,182,o),
(726,402,o),
(694,462,cs),
(691,468,o),
(689,478,o),
(693,484,cs),
(701,500,o),
(761,549,o),
(774,561,c),
(766,575,o),
(715,652,o),
(706,665,c),
(648,651,o),
(590,638,o),
(531,627,cs),
(501,621,o),
(461,617,o),
(466,587,cs),
(468,577,o),
(471,516,o),
(472,505,cs),
(482,423,o),
(493,341,o),
(509,260,c),
(477,254,o),
(303,240,o),
(271,237,c),
(290,264,o),
(380,392,o),
(393,423,c),
(317,491,o),
(238,556,o),
(152,611,cs),
(93,648,l),
(20,565,l),
(48,526,o),
(80,490,o),
(111,453,c),
(8,321,l),
(35,281,o),
(73,249,o),
(110,219,cs),
(148,189,o),
(189,163,o),
(229,135,c),
(328,155,o),
(428,168,o),
(528,172,c),
(532,142,l),
(547,59,l),
(370,30,l),
(406,134,l),
(292,121,o),
(180,94,o),
(70,66,c),
(-31,-46,l),
(21,-108,o),
(74,-170,o),
(130,-230,c)
);
},
{
closed = 1;
nodes = (
(398,561,l),
(392,573,o),
(353,603,o),
(342,611,cs),
(331,620,o),
(280,664,o),
(267,670,c),
(219,612,l),
(236,595,o),
(339,514,o),
(357,499,c)
);
}
);
width = 978;
}
);
note = Y;
unicode = (89,121,221,253,255,376);
},
{
glyphname = Z;
lastChange = "2024-05-24 19:17:51 +0000";
layers = (
{
layerId = m01;
shapes = (
{
closed = 1;
nodes = (
(599,-158,c),
(808,50,ls),
(813,55,o),
(828,63,o),
(828,69,cs),
(819,200,l),
(771,208,o),
(723,217,o),
(675,218,cs),
(570,220,o),
(462,199,o),
(366,156,c),
(370,160,o),
(391,182,o),
(396,186,cs),
(479,245,o),
(574,288,o),
(667,331,cs),
(676,336,o),
(686,340,o),
(697,344,c),
(749,547,l),
(717,555,o),
(611,522,o),
(580,511,c),
(584,529,o),
(600,623,o),
(602,640,c),
(493,625,o),
(610,631,o),
(453,618,cs),
(354,606,o),
(254,597,o),
(154,597,c),
(152,560,o),
(136,339,o),
(135,302,c),
(197,301,o),
(260,305,o),
(322,312,c),
(237,257,ls),
(212,240,o),
(185,225,o),
(160,208,cs),
(129,188,o),
(100,166,o),
(72,144,c),
(81,-103,ls),
(81,-113,o),
(74,-112,o),
(100,-106,c),
(179,-69,o),
(259,-31,o),
(344,-9,cs),
(400,5,o),
(458,10,o),
(516,9,cs),
(526,9,o),
(537,-5,o),
(541,-15,cs),
(557,-54,o),
(541,-103,o),
(523,-142,c),
(543,-148,o),
(565,-158,o)
);
},
{
closed = 1;
nodes = (
(124,598,l),
(86,599,o),
(51,605,o),
(10,616,c),
(163,616,o),
(8,819,o),
(8,613,cs),
(9,592,ls),
(12,554,o),
(30,344,o),
(37,306,c),
(104,302,l)
);
}
);
width = 828;
}
);
note = Z;
unicode = (90,122);
},
{
glyphname = underscore;
lastChange = "2024-05-24 19:17:51 +0000";
layers = (
{
layerId = m01;
shapes = (
{
closed = 1;
nodes = (
(-9,-65,l),
(-1,-49,o),
(23,-45,o),
(41,-43,cs),
(97,-39,o),
(389,-45,o),
(456,-45,c),
(607,103,l),
(619,112,o),
(631,116,o),
(626,131,c),
(582,140,l),
(563,121,o),
(543,104,o),
(522,86,c),
(486,91,o),
(284,98,o),
(248,99,cs),
(195,102,o),
(141,99,o),
(88,102,c),
(-70,-96,l),
(-59,-98,o),
(-47,-100,o),
(-36,-101,c)
);
}
);
width = 637;
}
);
note = underscore;
unicode = 95;
},
{
glyphname = asterisk;
lastChange = "2024-05-24 19:17:51 +0000";
layers = (
{
layerId = m01;
shapes = (
{
closed = 1;
nodes = (
(542,-24,o),
(541,-7,o),
(537,10,cs),
(533,35,o),
(530,61,o),
(525,87,cs),
(511,193,l),
(518,262,l),
(543,270,o),
(533,260,o),
(556,289,c),
(527,313,o),
(531,306,o),
(518,355,c),
(403,287,o),
(290,214,o),
(173,150,c),
(196,177,ls),
(206,189,o),
(219,198,o),
(232,207,cs),
(285,239,o),
(337,272,o),
(390,303,cs),
(665,462,o),
(417,312,o),
(702,485,c),
(688,485,o),
(676,486,o),
(663,485,cs),
(617,480,o),
(570,473,o),
(525,467,c),
(440,463,l),
(420,493,o),
(398,524,o),
(379,554,cs),
(312,662,ls),
(305,674,o),
(303,676,o),
(291,688,c),
(290,588,ls),
(290,488,o),
(293,591,o),
(290,489,c),
(235,539,l),
(227,522,o),
(219,505,o),
(212,486,cs),
(181,412,l),
(0,386,l),
(142,282,o),
(5,410,o),
(136,288,c),
(116,228,ls),
(95,175,o),
(81,119,o),
(53,68,cs),
(48,59,o),
(44,62,o),
(64,57,c),
(74,60,o),
(83,65,o),
(92,68,c),
(328,176,l),
(340,163,o),
(352,153,o),
(363,141,cs),
(493,-1,l),
(537,-42,l)
);
}
);
width = 703;
}
);
unicode = 42;
},
{
glyphname = numbersign;
lastChange = "2024-05-24 19:17:51 +0000";
layers = (
{
layerId = m01;
shapes = (
{
closed = 1;
nodes = (
(216,320,o),
(489,337,o),
(665,335,c),
(665,375,o),
(676,415,o),
(673,456,c),
(660,456,o),
(649,455,o),
(637,454,cs),
(517,441,l),
(294,427,ls),
(226,423,o),
(157,420,o),
(89,418,c),
(79,416,o),
(67,416,o),
(57,415,c),
(37,308,l)
);
},
{
closed = 1;
nodes = (
(117,236,l),
(15,236,l),
(0,161,l),
(35,160,o),
(68,157,o),
(103,155,c)
);
},
{
closed = 1;
nodes = (
(210,92,l),
(263,306,l),
(143,299,l),
(139,279,o),
(135,260,o),
(133,241,cs),
(121,89,l),
(128,88,o),
(134,88,o),
(141,88,cs)
);
},
{
closed = 1;
nodes = (
(324,233,l),
(266,235,l),
(241,144,l),
(304,139,l)
);
},
{
closed = 1;
nodes = (
(311,9,o),
(319,13,o),
(328,14,c),
(371,24,o),
(414,36,o),
(458,46,cs),
(481,52,o),
(503,58,o),
(527,63,c),
(539,312,l),
(361,308,l),
(339,210,o),
(312,113,o),
(300,14,c)
);
},
{
closed = 1;
nodes = (
(659,111,cs),
(673,110,o),
(671,110,o),
(676,134,c),
(683,201,l),
(685,208,o),
(685,214,o),
(685,222,c),
(553,226,l),
(551,190,o),
(549,155,o),
(548,116,c),
(784,109,o),
(411,116,o)
);
},
{
closed = 1;
nodes = (
(215,444,o),
(260,447,o),
(306,453,c),
(371,660,l),
(348,658,o),
(328,658,o),
(307,655,cs),
(209,640,l),
(199,637,o),
(195,638,o),
(195,611,c),
(173,469,l),
(169,438,l)
);
},
{
closed = 1;
nodes = (
(549,471,l),
(556,613,l),
(431,600,l),
(395,460,l)
);
}
);
width = 685;
}
);
unicode = 35;
},
{
glyphname = slash;
lastChange = "2024-05-24 19:17:51 +0000";
layers = (
{
layerId = m01;
shapes = (
{
closed = 1;
nodes = (
(10,-79,c),
(75,-75,ls),
(87,-75,o),
(94,-69,o),
(99,-57,cs),
(141,30,o),
(182,117,o),
(225,204,cs),
(448,651,l),
(458,670,l),
(398,677,l),
(297,686,ls),
(287,687,o),
(278,682,o),
(273,673,cs),
(265,654,o),
(256,635,o),
(249,615,cs),
(103,212,l),
(7,-55,ls),
(5,-60,o),
(5,-65,o)
);
},
{
closed = 1;
nodes = (
(176,-61,o),
(217,-57,o),
(256,-51,cs),
(262,-50,o),
(282,-40,o),
(281,-17,c),
(329,89,o),
(370,197,o),
(410,306,cs),
(433,368,o),
(515,593,o),
(541,655,c),
(476,667,l),
(132,-67,l)
);
}
);
width = 541;
}
);
unicode = 47;
},
{
glyphname = at;
lastChange = "2024-05-24 19:17:51 +0000";
layers = (
{
layerId = m01;
shapes = (
{
closed = 1;
nodes = (
(327,90,c),
(280,177,l),
(266,184,o),
(255,196,o),
(245,209,cs),
(224,234,o),
(220,264,o),
(219,294,cs),
(218,319,o),
(230,340,o),
(253,350,cs),
(267,355,o),
(282,361,o),
(296,363,cs),
(309,366,o),
(321,367,o),
(334,369,c),
(339,392,o),
(347,413,o),
(345,438,c),
(325,438,o),
(307,435,o),
(292,428,c),
(276,423,o),
(259,414,o),
(241,408,c),
(296,479,o),
(365,507,o),
(452,479,c),
(484,526,o),
(516,572,o),
(546,619,c),
(541,622,o),
(534,624,o),
(528,628,c),
(483,651,o),
(433,663,o),
(382,668,cs),
(335,674,o),
(289,674,o),
(242,666,c),
(231,663,o),
(220,660,o),
(209,656,cs),
(193,652,o),
(197,644,o),
(212,627,c),
(219,616,o),
(229,606,o),
(235,594,c),
(218,586,o),
(201,579,o),
(184,570,cs),
(95,522,o),
(34,452,o),
(9,352,cs),
(4,329,o),
(-2,305,o),
(1,282,cs),
(5,240,o),
(19,202,o),
(42,169,cs),
(52,155,o),
(63,144,o),
(77,137,cs),
(160,88,o),
(221,75,o)
);
},
{
closed = 1;
nodes = (
(440,3,o),
(465,9,o),
(488,17,cs),
(573,43,o),
(634,85,o),
(705,155,c),
(752,225,o),
(770,303,o),
(763,385,cs),
(763,395,o),
(763,394,o),
(752,401,c),
(641,328,o),
(677,356,o),
(559,263,c),
(554,243,o),
(546,223,o),
(535,205,cs),
(506,158,o),
(463,129,o),
(407,119,cs),
(400,118,o),
(393,115,o),
(400,134,c),
(440,160,l),
(452,171,o),
(461,185,o),
(466,202,cs),
(474,225,o),
(473,250,o),
(462,274,cs),
(455,287,o),
(448,304,o),
(437,314,cs),
(401,348,o),
(342,341,o),
(311,301,c),
(306,296,o),
(302,285,o),
(300,278,c),
(296,249,o),
(317,216,o),
(343,206,cs),
(375,196,o),
(405,201,o),
(436,229,c),
(436,187,o),
(409,162,o),
(380,138,c),
(376,147,o),
(374,152,o),
(371,156,c),
(329,160,l),
(415,6,l)
);
},
{
closed = 1;
nodes = (
(702,395,l),
(687,483,o),
(629,572,o),
(561,608,c),
(531,562,o),
(499,517,o),
(470,471,c),
(534,431,o),
(564,376,o),
(564,301,c)
);
}
);
width = 764;
}
);
unicode = 64;
},
{
glyphname = ampersand;
lastChange = "2024-05-24 19:17:51 +0000";
layers = (
{
layerId = m01;
shapes = (
{
closed = 1;
nodes = (
(412,59,o),
(402,117,o),
(390,174,c),
(368,175,o),
(346,174,o),
(327,178,cs),
(271,189,o),
(230,220,o),
(212,277,cs),
(206,293,o),
(204,310,o),
(208,325,cs),
(213,340,o),
(220,345,o),
(234,342,cs),
(246,339,o),
(257,336,o),
(267,331,cs),
(292,320,o),
(315,307,o),
(355,287,c),
(387,362,l),
(329,378,l),
(308,386,o),
(292,401,o),
(283,423,cs),
(271,455,o),
(271,450,o),
(279,501,c),
(290,482,l),
(318,442,o),
(354,409,o),
(401,390,cs),
(415,384,o),
(431,381,o),
(447,383,cs),
(456,384,o),
(462,388,o),
(466,395,cs),
(475,414,o),
(486,432,o),
(498,450,cs),
(625,629,l),
(604,629,o),
(584,630,o),
(562,629,cs),
(510,629,o),
(463,645,o),
(422,678,cs),
(398,697,o),
(377,720,o),
(354,740,cs),
(347,747,o),
(341,755,o),
(333,760,cs),
(326,766,o),
(318,769,o),
(309,764,cs),
(272,739,o),
(244,721,o),
(211,670,c),
(193,701,o),
(224,705,o),
(179,696,c),
(158,649,o),
(147,599,o),
(152,547,cs),
(154,520,o),
(154,520,o),
(179,512,c),
(190,439,o),
(191,485,o),
(187,412,c),
(136,416,o),
(86,410,o),
(23,386,c),
(17,369,o),
(10,354,o),
(6,338,cs),
(-4,293,o),
(-2,247,o),
(10,203,cs),
(27,129,o),
(60,63,o),
(119,13,cs),
(204,-55,o),
(309,-64,o),
(410,-1,c)
);
},
{
closed = 1;
nodes = (
(469,-92,o),
(499,-81,o),
(529,-75,cs),
(622,-52,l),
(546,95,l),
(592,116,l),
(592,271,l),
(528,220,o),
(565,224,o),
(479,224,c),
(471,239,o),
(464,255,o),
(455,271,cs),
(449,282,o),
(445,285,o),
(432,281,cs),
(420,277,o),
(407,271,o),
(393,265,c),
(422,147,o),
(440,28,o),
(436,-95,c)
);
},
{
closed = 1;
nodes = (
(689,549,l),
(658,592,l),
(608,530,o),
(555,473,o),
(511,408,c),
(517,398,o),
(523,388,o),
(529,376,c)
);
}
);
width = 689;
}
);
unicode = 38;
},
{
glyphname = dollar;
lastChange = "2024-05-24 19:17:51 +0000";
layers = (
{
layerId = m01;
shapes = (
{
closed = 1;
nodes = (
(245,-84,c),
(281,-59,o),
(274,-68,o),
(311,-27,c),
(311,-11,o),
(311,4,o),
(309,20,cs),
(305,67,l),
(314,68,o),
(323,68,o),
(329,70,c),
(333,26,o),
(339,-18,o),
(353,-57,c),
(408,-25,ls),
(416,-21,o),
(421,-15,o),
(419,-6,c),
(419,73,l),
(484,64,l),
(591,304,o),
(459,-14,o),
(570,244,c),
(555,278,o),
(535,309,o),
(509,333,cs),
(456,385,o),
(393,414,o),
(321,426,cs),
(301,429,o),
(280,427,o),
(260,424,c),
(203,410,ls),
(167,400,o),
(147,387,o),
(126,373,c),
(129,404,o),
(182,486,o),
(207,503,c),
(213,499,o),
(220,493,o),
(227,490,cs),
(248,480,o),
(268,471,o),
(292,462,cs),
(331,449,o),
(371,439,o),
(415,439,c),
(463,569,l),
(419,591,o),
(371,603,o),
(321,619,c),
(320,724,l),
(283,705,o),
(284,705,o),
(248,672,c),
(249,632,l),
(233,604,l),
(223,701,l),
(195,686,o),
(170,672,o),
(146,657,c),
(144,574,l),
(99,552,o),
(61,519,o),
(33,478,cs),
(8,440,o),
(-4,398,o),
(1,352,c),
(1,332,o),
(6,309,o),
(9,288,c),
(11,281,o),
(14,273,o),
(20,270,c),
(39,282,o),
(58,294,o),
(78,304,cs),
(156,341,ls),
(185,354,o),
(214,366,o),
(247,370,c),
(284,378,o),
(306,374,o),
(348,348,c),
(248,361,o),
(165,326,o),
(107,288,c),
(187,39,l),
(200,44,o),
(210,48,o),
(222,51,c),
(230,5,o),
(230,-41,o)
);
},
{
closed = 1;
nodes = (
(159,20,l),
(153,45,o),
(146,67,o),
(138,90,cs),
(112,167,ls),
(115,160,o),
(55,256,o),
(62,250,c),
(40,219,l),
(33,212,o),
(34,205,o),
(37,194,c),
(60,147,o),
(101,49,o),
(116,-12,c)
);
},
{
closed = 1;
nodes = (
(553,81,o),
(552,92,o),
(545,146,c),
(529,117,o),
(516,85,o),
(504,54,c),
(553,24,l)
);
},
{
closed = 1;
nodes = (
(488,440,o),
(592,562,o),
(601,579,c),
(544,617,l),
(503,577,o),
(457,511,o),
(468,426,c)
);
}
);
width = 601;
}
);
unicode = 36;
},
{
glyphname = percent;
lastChange = "2024-05-24 19:17:51 +0000";
layers = (
{
layerId = m01;
shapes = (
{
closed = 1;
nodes = (
(177,1,ls),
(186,3,o),
(190,7,o),
(194,14,cs),
(471,494,l),
(390,506,l),
(107,-10,l)
);
},
{
closed = 1;
nodes = (
(165,-41,l),
(181,-11,l),
(92,-33,l),
(74,-65,l)
);
},
{
closed = 1;
nodes = (
(270,318,o),
(301,398,o),
(273,468,cs),
(261,496,o),
(243,518,o),
(217,534,cs),
(190,550,o),
(162,557,o),
(130,553,cs),
(68,546,o),
(17,505,o),
(4,444,cs),
(-1,425,o),
(-2,405,o),
(5,383,c),
(106,448,l),
(108,470,o),
(124,488,o),
(146,492,cs),
(167,495,o),
(183,487,o),
(197,472,cs),
(210,458,o),
(210,440,o),
(199,423,cs),
(183,398,o),
(163,388,o),
(116,416,c),
(18,346,l),
(53,281,o),
(134,254,o),
(202,286,cs)
);
},
{
closed = 1;
nodes = (
(565,-14,o),
(620,44,o),
(625,116,cs),
(631,189,o),
(591,250,o),
(508,276,c),
(462,175,l),
(475,160,o),
(472,144,o),
(471,128,cs),
(471,102,o),
(462,93,o),
(422,92,cs),
(388,92,o),
(362,127,o),
(375,159,cs),
(379,169,o),
(388,176,o),
(401,187,c),
(439,187,l),
(476,277,l),
(465,277,o),
(456,278,o),
(448,277,cs),
(376,268,o),
(320,206,o),
(317,133,cs),
(314,30,o),
(405,-40,o),
(496,-25,cs)
);
},
{
closed = 1;
nodes = (
(490,524,o),
(499,539,o),
(510,555,c),
(418,562,l),
(396,519,l),
(481,509,l)
);
},
{
closed = 1;
nodes = (
(520,576,o),
(525,579,o),
(529,587,cs),
(561,644,l),
(505,650,o),
(510,647,o),
(452,626,c),
(430,583,l),
(511,577,ls)
);
}
